<svg width="1440" height="620" viewBox="0 0 1440 620" fill="none" xmlns="http://www.w3.org/2000/svg">
<path d="M1324.89 242.345L1320.97 243.999C1321.41 243.869 1321.85 243.755 1322.29 243.631C1323.74 243.075 1325.19 242.513 1326.65 241.945C1326.06 242.081 1325.48 242.21 1324.89 242.351M1300.14 251.082C1299.13 251.531 1298.11 251.99 1297.11 252.438L1297.52 252.309L1301.33 250.769L1300.14 251.082ZM1314.24 244.793C1312.01 245.798 1309.81 246.76 1307.59 247.759C1308.74 247.446 1309.9 247.105 1311.05 246.787C1313.23 245.884 1315.43 244.944 1317.61 244.015C1316.49 244.269 1315.36 244.539 1314.24 244.793L1314.24 244.793ZM1274.94 260.543C1274.1 260.932 1273.28 261.289 1272.44 261.672L1272.46 261.672C1273.42 261.256 1274.4 260.829 1275.37 260.413L1274.94 260.538L1274.94 260.543ZM1288.88 254.048C1286.89 254.978 1284.89 255.923 1282.91 256.842C1283.82 256.566 1284.72 256.307 1285.62 256.031C1287.87 255.059 1290.09 254.135 1292.35 253.141C1291.2 253.438 1290.04 253.751 1288.88 254.048ZM1303.7 247.073C1300.9 248.413 1298.14 249.699 1295.35 251.017C1296.79 250.639 1298.22 250.261 1299.66 249.877C1302.44 248.645 1305.24 247.392 1308.03 246.144C1306.58 246.457 1305.14 246.765 1303.7 247.073ZM185.449 137.471L186.421 137.817C187.162 137.855 187.904 137.898 188.645 137.941L187.74 137.671C186.979 137.601 186.214 137.536 185.449 137.471ZM1248.59 270.901L1247.71 271.311C1248.11 271.138 1248.5 270.976 1248.9 270.798L1248.59 270.901ZM1263.38 263.893C1261.54 264.79 1259.71 265.654 1257.88 266.53C1258.59 266.297 1259.31 266.07 1260.03 265.833C1261.98 264.963 1263.94 264.066 1265.88 263.196C1265.05 263.434 1264.22 263.655 1263.38 263.893ZM1278.06 256.723C1275.39 258.03 1272.71 259.343 1270.05 260.635C1271.51 260.208 1272.99 259.759 1274.46 259.327C1277.09 258.122 1279.74 256.885 1282.39 255.642C1280.95 255.999 1279.5 256.361 1278.06 256.718L1278.06 256.723ZM1293.12 249.267C1289.92 250.877 1286.74 252.465 1283.58 254.027C1285.19 253.622 1286.79 253.243 1288.41 252.833C1291.68 251.293 1294.93 249.785 1298.21 248.24C1296.51 248.597 1294.82 248.921 1293.12 249.267L1293.12 249.267ZM176.986 136.736C177.551 136.969 178.115 137.212 178.679 137.45L181.947 137.601C181.396 137.406 180.849 137.206 180.298 137.017C179.193 136.92 178.091 136.823 176.986 136.731L176.986 136.736ZM171.995 134.699L173.104 135.148L175.33 135.321L174.358 134.991C173.569 134.894 172.784 134.791 171.995 134.699ZM167.374 132.841L167.531 132.9L168.231 132.981L167.374 132.841ZM1237 274.515C1235.28 275.353 1233.54 276.212 1231.8 277.06L1234.38 276.163C1236.06 275.385 1237.78 274.564 1239.48 273.764C1238.65 274.018 1237.83 274.267 1237 274.521L1237 274.515ZM1251.96 267.081C1249.43 268.367 1246.9 269.658 1244.41 270.895C1245.63 270.512 1246.87 270.096 1248.1 269.707C1250.79 268.437 1253.47 267.183 1256.16 265.914C1254.76 266.297 1253.35 266.702 1251.96 267.081ZM1267.29 259.316L1257.84 264.109C1259.52 263.639 1261.21 263.18 1262.9 262.699C1265.95 261.235 1269.03 259.711 1272.11 258.203C1270.49 258.587 1268.9 258.944 1267.29 259.322L1267.29 259.316ZM1282.65 251.363C1279.12 253.227 1275.57 255.091 1272.1 256.88C1273.91 256.442 1275.75 255.972 1277.58 255.523C1281.18 253.746 1284.76 252.017 1288.39 250.218C1286.47 250.596 1284.56 250.99 1282.65 251.363ZM168.758 136.088C169.465 136.428 170.179 136.763 170.887 137.104C172.216 137.158 173.545 137.206 174.871 137.266C174.161 136.974 173.447 136.688 172.736 136.396C171.41 136.293 170.088 136.185 168.758 136.083L168.758 136.088ZM163.913 133.775C164.471 134.035 165.022 134.3 165.576 134.564C166.657 134.645 167.735 134.726 168.813 134.807L167.136 134.143C166.062 134.019 164.988 133.894 163.91 133.775L163.913 133.775ZM159.14 131.571L160.241 132.079C160.989 132.16 161.737 132.236 162.482 132.322C162.149 132.192 161.819 132.063 161.482 131.933C160.7 131.814 159.922 131.69 159.14 131.576L159.14 131.571ZM154.658 129.545L154.9 129.653L155.787 129.777L155.726 129.755L154.662 129.545L154.658 129.545ZM1210.19 285.738C1208.64 286.521 1207.08 287.321 1205.55 288.083C1206.05 287.899 1206.56 287.704 1207.06 287.515C1208.85 286.667 1210.62 285.846 1212.42 284.992L1210.19 285.732L1210.19 285.738ZM1225.35 278.076C1222.89 279.324 1220.45 280.545 1218 281.793C1219.21 281.388 1220.4 281.01 1221.61 280.599C1224.09 279.4 1226.61 278.157 1229.11 276.931C1227.86 277.309 1226.59 277.709 1225.35 278.076ZM1240.84 270.036C1237.84 271.614 1234.83 273.202 1231.87 274.726C1233.42 274.261 1234.97 273.786 1236.51 273.305C1239.63 271.776 1242.7 270.29 1245.83 268.729C1244.16 269.172 1242.5 269.598 1240.84 270.036L1240.84 270.036ZM1256.58 261.796C1253.01 263.677 1249.48 265.508 1245.93 267.372C1247.77 266.881 1249.62 266.378 1251.47 265.876C1254.96 264.125 1258.48 262.331 1261.99 260.543C1260.19 260.954 1258.38 261.397 1256.58 261.802L1256.58 261.796ZM1272.45 253.254C1268.61 255.34 1264.76 257.452 1260.98 259.457C1262.92 259.014 1264.86 258.56 1266.81 258.106C1270.63 256.15 1274.46 254.178 1278.32 252.174C1276.36 252.541 1274.41 252.898 1272.45 253.254ZM160.69 135.515C161.462 135.942 162.23 136.374 162.999 136.807C164.532 136.861 166.059 136.92 167.589 136.979C166.783 136.59 165.974 136.201 165.164 135.818C163.672 135.715 162.179 135.612 160.687 135.51L160.69 135.515ZM155.944 132.927C156.634 133.3 157.324 133.673 158.011 134.046C159.33 134.132 160.646 134.229 161.962 134.321C161.248 133.986 160.53 133.657 159.816 133.327C158.528 133.192 157.232 133.062 155.944 132.927ZM151.289 130.442C151.857 130.739 152.431 131.031 152.999 131.333C154.07 131.441 155.138 131.555 156.205 131.663C155.627 131.403 155.043 131.149 154.461 130.89L151.292 130.442L151.289 130.442ZM146.774 128.086C147.145 128.275 147.508 128.47 147.879 128.664C148.644 128.767 149.406 128.88 150.171 128.988L149.099 128.518C148.324 128.378 147.552 128.232 146.774 128.091L146.774 128.086ZM142.422 125.887L142.769 126.06C143.095 126.114 143.425 126.168 143.748 126.227L143.568 126.152C143.183 126.065 142.803 125.973 142.422 125.887ZM1183.21 297.451C1181.67 298.24 1180.19 298.964 1178.66 299.742C1178.98 299.618 1179.29 299.505 1179.62 299.38C1181.25 298.592 1182.91 297.776 1184.55 296.976C1184.1 297.133 1183.65 297.295 1183.2 297.451L1183.21 297.451ZM1198.27 289.606C1196 290.789 1193.72 291.989 1191.47 293.151C1192.6 292.751 1193.73 292.356 1194.86 291.951C1197.24 290.784 1199.58 289.644 1201.98 288.45C1200.73 288.85 1199.52 289.212 1198.27 289.606L1198.27 289.606ZM1214.21 281.285C1211.11 282.928 1208.08 284.479 1205 286.1C1206.56 285.597 1208.14 285.057 1209.7 284.544C1212.68 283.047 1215.69 281.518 1218.69 279.999C1217.19 280.432 1215.7 280.864 1214.22 281.285L1214.21 281.285ZM1229.74 272.921C1226.35 274.758 1222.94 276.601 1219.59 278.395C1221.35 277.881 1223.1 277.401 1224.87 276.871C1228.32 275.11 1231.78 273.316 1235.27 271.5C1233.43 271.976 1231.58 272.462 1229.74 272.921L1229.74 272.921ZM1246.12 264.071C1242.2 266.211 1238.35 268.269 1234.47 270.371C1236.43 269.869 1238.39 269.35 1240.36 268.831C1244.16 266.848 1247.98 264.849 1251.81 262.839C1249.91 263.255 1248.01 263.661 1246.12 264.066L1246.12 264.071ZM1262.31 255.07C1258.19 257.371 1254.06 259.684 1249.99 261.921C1252.03 261.478 1254.06 261.056 1256.1 260.597C1260.13 258.463 1264.23 256.242 1268.32 254.027C1266.32 254.383 1264.31 254.724 1262.31 255.07ZM152.652 134.991C153.485 135.521 154.322 136.039 155.151 136.574C156.814 136.623 158.48 136.666 160.143 136.715C159.282 136.239 158.422 135.769 157.562 135.299C155.927 135.191 154.288 135.088 152.652 134.991ZM148.134 132.154C148.896 132.625 149.654 133.1 150.415 133.575C151.898 133.662 153.38 133.743 154.862 133.835C154.084 133.419 153.312 132.992 152.533 132.576C151.068 132.43 149.603 132.29 148.134 132.154ZM143.629 129.404C144.306 129.81 144.975 130.226 145.648 130.636C146.93 130.755 148.215 130.869 149.497 130.993C148.797 130.625 148.096 130.258 147.393 129.891C146.141 129.723 144.884 129.566 143.632 129.404L143.629 129.404ZM139.165 126.757C139.729 127.086 140.29 127.416 140.851 127.751L143.996 128.156C143.421 127.864 142.844 127.578 142.265 127.286C141.232 127.108 140.198 126.93 139.161 126.757L139.165 126.757ZM134.83 124.234C135.227 124.46 135.629 124.682 136.026 124.909C136.781 125.033 137.533 125.168 138.287 125.298C137.896 125.103 137.499 124.92 137.108 124.731C136.349 124.569 135.591 124.396 134.833 124.234L134.83 124.234ZM130.722 121.91L131.13 122.143C131.481 122.213 131.831 122.283 132.181 122.359L131.892 122.224L130.719 121.916L130.722 121.91ZM1155.19 309.879C1153.97 310.505 1152.75 311.143 1151.54 311.77C1152 311.586 1152.45 311.408 1152.92 311.224C1154.15 310.613 1155.41 309.981 1156.66 309.355C1156.16 309.533 1155.68 309.7 1155.19 309.879ZM1171.08 301.569C1168.89 302.741 1166.71 303.892 1164.55 305.027C1165.47 304.686 1166.39 304.335 1167.31 303.995C1169.61 302.838 1171.92 301.671 1174.22 300.515C1173.17 300.872 1172.13 301.212 1171.08 301.569ZM1186.63 293.237C1183.72 294.799 1180.8 296.371 1177.9 297.916C1179.49 297.37 1181.09 296.809 1182.69 296.252C1185.52 294.804 1188.4 293.291 1191.27 291.784C1189.73 292.265 1188.17 292.762 1186.63 293.232L1186.63 293.237ZM1202.77 284.511C1199.39 286.364 1196.05 288.174 1192.71 289.984C1194.4 289.455 1196.08 288.942 1197.76 288.407L1207.98 283.079C1206.24 283.571 1204.51 284.036 1202.77 284.511L1202.77 284.511ZM1218.98 275.542C1215.18 277.655 1211.38 279.767 1207.6 281.837C1209.63 281.269 1211.68 280.659 1213.72 280.075C1217.35 278.157 1221.05 276.136 1224.74 274.137C1222.82 274.613 1220.9 275.083 1218.98 275.542ZM1235.58 266.276C1231.46 268.604 1227.37 270.89 1223.29 273.165C1225.27 272.678 1227.26 272.208 1229.25 271.706C1233.38 269.48 1237.49 267.281 1241.64 265.033C1239.61 265.46 1237.6 265.865 1235.58 266.276ZM1252.25 256.777C1247.86 259.289 1243.47 261.796 1239.12 264.255C1241.28 263.806 1243.46 263.32 1245.63 262.855C1249.85 260.548 1254.17 258.117 1258.46 255.718C1256.39 256.069 1254.31 256.437 1252.24 256.777L1252.25 256.777ZM153.281 140.907C194.884 172.456 232.321 211.126 270.466 250.536C410.406 395.145 560.003 549.609 961.312 396.706M144.69 134.521C145.529 135.126 146.363 135.748 147.195 136.363C148.987 136.401 150.776 136.445 152.567 136.493C151.69 135.937 150.81 135.38 149.932 134.829C148.188 134.726 146.441 134.618 144.693 134.521L144.69 134.521ZM140.351 131.436C141.154 132.003 141.953 132.571 142.752 133.143C144.394 133.23 146.029 133.322 147.668 133.413C146.832 132.895 145.989 132.387 145.149 131.879C143.551 131.728 141.953 131.576 140.351 131.436ZM136.05 128.437C136.798 128.95 137.553 129.458 138.298 129.982C139.756 130.107 141.211 130.231 142.667 130.366C141.895 129.901 141.116 129.442 140.341 128.983C138.913 128.799 137.482 128.621 136.05 128.443L136.05 128.437ZM131.793 125.536C132.456 125.979 133.116 126.427 133.776 126.876C135.024 127.022 136.275 127.162 137.519 127.319C136.842 126.924 136.173 126.519 135.496 126.13C134.265 125.925 133.028 125.736 131.797 125.536L131.793 125.536ZM127.554 122.731C128.104 123.093 128.652 123.461 129.203 123.823L132.283 124.309C131.715 123.99 131.151 123.666 130.583 123.347L127.554 122.731ZM123.378 120.046L124.572 120.803C125.323 120.948 126.068 121.105 126.816 121.256L125.633 120.608C124.881 120.419 124.133 120.224 123.382 120.041L123.378 120.046ZM119.519 117.615L119.985 117.901L121.015 118.144L120.614 117.934C120.25 117.825 119.883 117.723 119.523 117.615L119.519 117.615ZM1127.42 322.527C1126.38 323.078 1125.32 323.646 1124.29 324.186L1124.56 324.073C1125.84 323.424 1127.12 322.797 1128.41 322.149L1127.42 322.522L1127.42 322.527ZM1143.19 314.147C1140.95 315.336 1138.7 316.524 1136.46 317.724C1137.51 317.313 1138.6 316.87 1139.66 316.46C1141.81 315.357 1144 314.212 1146.18 313.083C1145.18 313.439 1144.18 313.796 1143.19 314.147ZM1158.83 305.675C1156.18 307.134 1153.51 308.614 1150.9 310.024C1152.16 309.571 1153.4 309.144 1154.67 308.685C1157.63 307.145 1160.55 305.653 1163.52 304.097C1161.97 304.611 1160.38 305.162 1158.83 305.67L1158.83 305.675ZM1175.23 296.668L1165.22 302.168C1167 301.579 1168.79 300.974 1170.58 300.375C1173.76 298.689 1177 296.938 1180.22 295.204C1178.55 295.706 1176.9 296.176 1175.23 296.668ZM1191.58 287.537C1187.87 289.633 1184.17 291.735 1180.52 293.767C1182.37 293.205 1184.25 292.621 1186.11 292.048C1189.93 289.995 1193.69 288.012 1197.53 285.927C1195.55 286.462 1193.56 287.013 1191.58 287.537L1191.58 287.537ZM1208.29 278.071C1204.21 280.383 1200.16 282.679 1196.11 284.97C1198.16 284.414 1200.21 283.874 1202.28 283.301C1206.21 281.15 1210.2 278.924 1214.18 276.714C1212.21 277.179 1210.25 277.617 1208.28 278.071L1208.29 278.071ZM1225.17 268.356C1220.82 270.884 1216.48 273.402 1212.19 275.861C1214.28 275.369 1216.39 274.845 1218.49 274.337C1222.84 271.916 1227.16 269.544 1231.55 267.081C1229.43 267.507 1227.29 267.945 1225.18 268.356L1225.17 268.356ZM1242.39 258.317C1237.78 261.018 1233.18 263.693 1228.6 266.357C1230.76 265.93 1232.92 265.503 1235.09 265.06C1239.55 262.547 1244.09 259.938 1248.62 257.344C1246.54 257.679 1244.47 257.993 1242.39 258.317ZM136.727 134.132C137.567 134.824 138.406 135.515 139.243 136.212C141.13 136.239 143.01 136.282 144.894 136.32C144.006 135.677 143.119 135.034 142.228 134.397C140.396 134.305 138.563 134.218 136.727 134.132ZM132.654 130.809C133.463 131.463 134.272 132.111 135.078 132.77C136.819 132.851 138.553 132.938 140.29 133.024C139.443 132.425 138.604 131.819 137.754 131.225C136.054 131.085 134.354 130.944 132.65 130.814L132.654 130.809ZM128.58 127.556C129.345 128.156 130.104 128.767 130.862 129.377C132.456 129.502 134.044 129.631 135.632 129.766C134.826 129.21 134.024 128.653 133.215 128.108C131.671 127.924 130.127 127.735 128.58 127.562L128.58 127.556ZM124.477 124.39C125.191 124.936 125.905 125.487 126.615 126.044C128.043 126.2 129.468 126.368 130.889 126.535C130.138 126.033 129.376 125.53 128.621 125.033C127.241 124.817 125.86 124.601 124.473 124.39L124.477 124.39ZM120.407 121.327C121.06 121.813 121.713 122.288 122.365 122.78C123.589 122.958 124.817 123.131 126.037 123.315C125.354 122.872 124.66 122.44 123.97 121.997C122.783 121.764 121.593 121.548 120.407 121.327ZM116.388 118.371C116.939 118.771 117.486 119.165 118.034 119.565C119.037 119.749 120.033 119.943 121.036 120.133C120.478 119.781 119.921 119.43 119.363 119.079C118.37 118.847 117.381 118.604 116.388 118.371ZM112.454 115.562C112.845 115.837 113.233 116.118 113.624 116.394C114.351 116.561 115.076 116.729 115.803 116.896C115.409 116.658 115.021 116.415 114.627 116.178C113.903 115.967 113.182 115.761 112.458 115.556L112.454 115.562ZM108.724 112.984L109.218 113.325L110.278 113.616L109.84 113.362L108.724 112.99L108.724 112.984ZM1099.63 335.489L1099.42 335.603L1099.67 335.473L1099.63 335.489ZM1114.73 327.282C1112.78 328.341 1110.82 329.416 1108.88 330.464C1109.69 330.14 1110.49 329.838 1111.31 329.508C1113.57 328.336 1115.77 327.228 1118.05 326.034C1116.95 326.439 1115.83 326.877 1114.73 327.277L1114.73 327.282ZM1131.16 318.345C1128.4 319.864 1125.7 321.306 1122.94 322.819C1124.26 322.322 1125.59 321.83 1126.92 321.328C1129.55 319.934 1132.22 318.507 1134.87 317.103C1133.62 317.535 1132.4 317.924 1131.16 318.351L1131.16 318.345ZM1147.28 309.322C1144.04 311.148 1140.79 312.985 1137.6 314.763C1139.27 314.174 1140.98 313.553 1142.66 312.958C1145.94 311.202 1149.19 309.473 1152.5 307.674C1150.75 308.231 1149.02 308.771 1147.28 309.317L1147.28 309.322ZM1163.87 300.007C1160.17 302.093 1156.51 304.135 1152.81 306.215C1154.66 305.626 1156.47 305.075 1158.32 304.476C1162.01 302.466 1165.73 300.412 1169.44 298.37C1167.59 298.91 1165.72 299.478 1163.87 300.007ZM1180.62 290.373C1176.66 292.67 1172.69 294.988 1168.8 297.214C1170.77 296.641 1172.75 296.057 1174.73 295.474C1178.68 293.286 1182.63 291.103 1186.63 288.866C1184.61 289.39 1182.62 289.871 1180.62 290.379L1180.62 290.373ZM1197.71 280.475C1193.37 283.004 1189.05 285.489 1184.71 288.007C1186.83 287.456 1188.96 286.894 1191.09 286.332C1195.33 283.944 1199.61 281.512 1203.9 279.076C1201.84 279.54 1199.77 280.027 1197.71 280.48L1197.71 280.475ZM1214.99 270.268C1210.47 272.97 1205.93 275.688 1201.48 278.298C1203.59 277.822 1205.69 277.352 1207.8 276.86C1212.3 274.294 1216.8 271.722 1221.34 269.096C1219.22 269.501 1217.1 269.874 1214.99 270.263L1214.99 270.268ZM1232.59 259.792C1227.76 262.677 1222.98 265.508 1218.17 268.377C1220.34 267.972 1222.51 267.572 1224.69 267.151C1229.39 264.428 1234.13 261.656 1238.88 258.873C1236.79 259.192 1234.69 259.495 1232.59 259.797L1232.59 259.792ZM128.781 133.792C129.604 134.564 130.416 135.342 131.232 136.12C133.187 136.137 135.149 136.147 137.104 136.174C136.237 135.456 135.374 134.737 134.507 134.024C132.599 133.938 130.692 133.862 128.781 133.792ZM124.963 130.242C125.762 130.971 126.551 131.717 127.346 132.457C129.175 132.527 131.008 132.587 132.834 132.668C131.984 131.982 131.13 131.301 130.277 130.62C128.509 130.485 126.734 130.366 124.963 130.242ZM121.1 126.757C121.879 127.448 122.654 128.145 123.429 128.848C125.123 128.961 126.816 129.08 128.509 129.204C127.686 128.556 126.857 127.918 126.03 127.275C124.392 127.097 122.746 126.924 121.104 126.757L121.1 126.757ZM117.224 123.342C117.972 123.99 118.727 124.633 119.472 125.293C121.012 125.449 122.549 125.617 124.086 125.779C123.311 125.184 122.535 124.59 121.753 124.001C120.244 123.78 118.737 123.558 117.224 123.342ZM113.372 120.03C114.062 120.613 114.746 121.202 115.433 121.791C116.816 121.98 118.197 122.18 119.577 122.38C118.853 121.84 118.129 121.294 117.401 120.759C116.062 120.511 114.715 120.268 113.372 120.025L113.372 120.03ZM109.52 116.82C110.146 117.334 110.761 117.858 111.383 118.371C112.57 118.582 113.76 118.776 114.947 118.993C114.294 118.522 113.637 118.052 112.981 117.588C111.832 117.328 110.676 117.074 109.523 116.82L109.52 116.82ZM105.658 113.703C106.198 114.135 106.739 114.562 107.276 114.994C108.265 115.21 109.251 115.432 110.241 115.653C109.68 115.264 109.115 114.886 108.554 114.497C107.589 114.232 106.63 113.962 105.661 113.703L105.658 113.703ZM101.955 110.78C102.356 111.093 102.761 111.396 103.162 111.704C103.866 111.887 104.573 112.06 105.277 112.244C104.869 111.969 104.451 111.704 104.043 111.434C103.352 111.212 102.652 111.001 101.958 110.78L101.955 110.78ZM98.4225 108.073L98.9222 108.456C99.2894 108.57 99.6532 108.689 100.02 108.802C99.8708 108.705 99.728 108.608 99.5785 108.511L98.4225 108.073ZM1070.42 349.327L1067.66 350.812L1067.87 350.721C1068.86 350.207 1069.89 349.656 1070.89 349.132L1070.42 349.321L1070.42 349.327ZM1086.46 340.611C1084.76 341.562 1083.04 342.53 1081.36 343.448L1082.94 342.8C1084.84 341.8 1086.75 340.79 1088.65 339.801C1087.91 340.082 1087.2 340.336 1086.46 340.611L1086.46 340.611ZM1102.63 331.621C1100 333.08 1097.35 334.56 1094.72 336.019C1096.17 335.457 1097.65 334.863 1099.11 334.295C1101.58 332.966 1104.12 331.577 1106.63 330.2C1105.29 330.681 1103.97 331.14 1102.63 331.621ZM1119.21 322.349C1115.95 324.202 1112.74 325.985 1109.5 327.806C1111.06 327.239 1112.63 326.666 1114.2 326.088C1117.48 324.305 1120.77 322.506 1124.06 320.723C1122.44 321.263 1120.82 321.814 1119.21 322.349ZM1135.58 312.969C1132.04 315.006 1128.49 317.049 1124.98 319.048C1126.86 318.41 1128.73 317.8 1130.63 317.151C1134.13 315.222 1137.67 313.229 1141.23 311.229C1139.35 311.813 1137.46 312.402 1135.58 312.969ZM1152.82 303.065C1148.74 305.432 1144.75 307.696 1140.7 310.035C1142.71 309.414 1144.74 308.76 1146.76 308.123C1150.69 305.918 1154.63 303.708 1158.57 301.488C1156.65 302.028 1154.73 302.541 1152.82 303.071L1152.82 303.065ZM1169.66 293.124C1165.45 295.62 1161.23 298.121 1157.08 300.547C1159.17 299.964 1161.24 299.402 1163.34 298.802C1167.53 296.42 1171.77 293.977 1176.02 291.519C1173.9 292.048 1171.77 292.61 1169.66 293.118L1169.66 293.124ZM1187.36 282.679C1182.74 285.43 1178.21 288.072 1173.61 290.795C1175.77 290.26 1177.94 289.709 1180.11 289.158C1184.58 286.58 1189.05 283.992 1193.55 281.383C1191.48 281.831 1189.42 282.247 1187.36 282.679ZM1204.83 272.106C1200.11 274.98 1195.37 277.871 1190.73 280.653C1192.89 280.194 1195.04 279.74 1197.2 279.265C1201.87 276.536 1206.58 273.748 1211.31 270.944C1209.14 271.338 1206.98 271.727 1204.82 272.106L1204.83 272.106ZM1222.86 261.17C1217.83 264.233 1212.87 267.221 1207.85 270.274C1210.05 269.879 1212.28 269.458 1214.49 269.047C1219.4 266.135 1224.31 263.212 1229.25 260.257C1227.12 260.559 1224.99 260.872 1222.86 261.164L1222.86 261.17ZM120.808 133.5C121.604 134.354 122.392 135.213 123.181 136.072C125.218 136.077 127.254 136.088 129.288 136.11C128.441 135.31 127.584 134.516 126.731 133.721C124.755 133.646 122.783 133.57 120.808 133.505L120.808 133.5ZM117.231 129.723C118.017 130.544 118.805 131.355 119.584 132.187C121.491 132.246 123.392 132.311 125.296 132.381C124.467 131.614 123.637 130.847 122.804 130.09C120.948 129.961 119.091 129.837 117.231 129.723ZM113.641 126.017C114.406 126.795 115.171 127.573 115.932 128.361C117.707 128.47 119.482 128.578 121.253 128.696C120.444 127.972 119.642 127.238 118.829 126.519C117.102 126.346 115.371 126.184 113.641 126.017ZM110.033 122.386C110.771 123.115 111.499 123.861 112.233 124.596C113.872 124.747 115.511 124.893 117.146 125.055C116.364 124.369 115.575 123.688 114.79 123.012C113.206 122.802 111.621 122.591 110.037 122.386L110.033 122.386ZM106.355 118.809C107.069 119.495 107.779 120.192 108.487 120.884C109.996 121.073 111.499 121.278 113.005 121.478C112.247 120.835 111.478 120.208 110.717 119.571C109.262 119.311 107.813 119.052 106.355 118.809ZM102.707 115.362C103.376 115.988 104.05 116.604 104.713 117.237C106.056 117.458 107.395 117.685 108.728 117.912C108.017 117.328 107.303 116.75 106.586 116.172C105.294 115.897 103.998 115.632 102.703 115.362L102.707 115.362ZM99.0616 112.006C99.6703 112.557 100.286 113.109 100.891 113.665C102.043 113.897 103.193 114.135 104.342 114.373C103.716 113.876 103.098 113.368 102.469 112.876C101.333 112.584 100.201 112.287 99.0616 112.001L99.0616 112.006ZM95.4543 108.775C95.9609 109.224 96.4606 109.683 96.9672 110.131C97.926 110.369 98.878 110.618 99.8335 110.861C99.2928 110.445 98.7522 110.029 98.2081 109.613C97.2936 109.332 96.3756 109.056 95.4576 108.781L95.4543 108.775ZM91.8876 105.706L93.0436 106.7C93.7338 106.9 94.4275 107.106 95.1177 107.311L93.9243 106.436L91.8876 105.712L91.8876 105.706ZM88.4842 102.848L89.0417 103.307L90.0821 103.664L89.5485 103.291L88.4842 102.848ZM1057.96 354.265C1056.23 355.227 1054.52 356.183 1052.82 357.123L1054.58 356.372C1056.35 355.432 1058.15 354.449 1059.93 353.492C1059.27 353.752 1058.62 354 1057.96 354.26L1057.96 354.265ZM1074.11 345.209C1071.45 346.695 1068.78 348.203 1066.12 349.689C1067.35 349.197 1068.62 348.657 1069.86 348.16C1072.62 346.668 1075.33 345.226 1078.1 343.729C1076.77 344.226 1075.44 344.723 1074.11 345.215L1074.11 345.209ZM1090.44 335.949C1087.44 337.672 1084.44 339.401 1081.49 341.076C1082.99 340.509 1084.46 339.979 1085.97 339.407C1089.03 337.721 1092.16 335.97 1095.27 334.236C1093.66 334.798 1092.03 335.397 1090.44 335.949ZM1107.39 326.207C1103.82 328.26 1100.27 330.302 1096.71 332.345C1098.51 331.713 1100.31 331.07 1102.12 330.427C1105.68 328.444 1109.19 326.504 1112.75 324.516C1110.95 325.105 1109.18 325.634 1107.39 326.207ZM1124.34 316.297C1120.41 318.615 1116.48 320.95 1112.62 323.197C1114.62 322.543 1116.68 321.83 1118.7 321.16C1122.49 319.015 1126.35 316.784 1130.2 314.563C1128.24 315.147 1126.29 315.725 1124.34 316.297L1124.34 316.297ZM1141.64 306.113C1137.38 308.641 1133.2 311.073 1128.97 313.569C1131.01 312.964 1133.03 312.386 1135.08 311.764C1139.35 309.306 1143.6 306.891 1147.88 304.421C1145.8 304.983 1143.71 305.567 1141.64 306.113L1141.64 306.113ZM1159.12 295.604C1154.63 298.316 1150.13 301.034 1145.7 303.681C1147.89 303.092 1150.11 302.466 1152.32 301.866C1156.62 299.359 1161.02 296.738 1165.41 294.139C1163.3 294.642 1161.21 295.117 1159.12 295.609L1159.12 295.604ZM1176.89 284.851C1172.14 287.748 1167.44 290.584 1162.73 293.421C1164.88 292.913 1167.01 292.432 1169.16 291.913C1173.91 289.109 1178.63 286.337 1183.4 283.511C1181.23 283.96 1179.05 284.419 1176.88 284.851L1176.89 284.851ZM1194.92 273.77C1189.95 276.833 1185 279.886 1180.09 282.885C1182.34 282.425 1184.61 281.934 1186.87 281.458C1191.64 278.605 1196.51 275.634 1201.36 272.684C1199.21 273.051 1197.06 273.419 1194.92 273.77ZM1213.2 262.418C1208.05 265.638 1202.92 268.831 1197.84 271.976C1200.01 271.614 1202.17 271.257 1204.34 270.879C1209.45 267.778 1214.52 264.714 1219.65 261.591C1217.5 261.877 1215.35 262.142 1213.2 262.418L1213.2 262.418ZM112.828 133.278C113.586 134.208 114.352 135.137 115.103 136.072C117.187 136.061 119.268 136.066 121.349 136.066C120.543 135.191 119.737 134.31 118.924 133.446C116.895 133.386 114.865 133.332 112.828 133.278ZM109.517 129.269C110.268 130.166 111.013 131.068 111.757 131.971C113.729 132.014 115.701 132.073 117.67 132.133C116.867 131.29 116.065 130.447 115.256 129.61C113.345 129.496 111.434 129.377 109.517 129.275L109.517 129.269ZM106.178 125.336C106.916 126.189 107.64 127.059 108.371 127.924C110.234 128.021 112.087 128.135 113.943 128.248C113.148 127.432 112.346 126.632 111.547 125.822C109.758 125.655 107.973 125.492 106.178 125.336ZM102.791 121.483C103.519 122.299 104.243 123.12 104.964 123.947C106.691 124.093 108.415 124.244 110.139 124.401C109.36 123.623 108.575 122.856 107.789 122.089C106.127 121.878 104.461 121.683 102.795 121.483L102.791 121.483ZM99.3744 117.69C100.088 118.468 100.809 119.241 101.52 120.035C103.097 120.224 104.678 120.403 106.253 120.592C105.505 119.868 104.76 119.144 104.012 118.431C102.469 118.182 100.925 117.934 99.3779 117.69L99.3744 117.69ZM95.9473 113.989C96.6272 114.708 97.3004 115.432 97.9736 116.161C99.4288 116.383 100.874 116.621 102.322 116.858C101.601 116.183 100.887 115.508 100.163 114.838C98.7623 114.551 97.3581 114.265 95.9473 113.989ZM92.5267 110.407C93.1592 111.061 93.7849 111.725 94.4139 112.385C95.7059 112.633 97.0012 112.876 98.2899 113.136C97.6099 112.52 96.9265 111.909 96.2397 111.299C95.0055 110.996 93.7678 110.704 92.5303 110.412L92.5267 110.407ZM89.0282 106.884C89.6197 107.473 90.2081 108.062 90.793 108.656C91.9252 108.921 93.054 109.197 94.1793 109.467C93.5537 108.921 92.9178 108.386 92.2889 107.846C91.2043 107.527 90.1196 107.198 89.0249 106.89L89.0282 106.884ZM85.6249 103.55C86.1315 104.037 86.6449 104.518 87.1481 105.009C88.0525 105.263 88.9636 105.506 89.868 105.766C89.3411 105.323 88.8072 104.885 88.2767 104.442C87.3962 104.139 86.5089 103.848 85.6249 103.556L85.6249 103.55ZM82.269 100.346C82.6464 100.698 83.0205 101.06 83.3979 101.416C84.0712 101.638 84.7375 101.87 85.4106 102.092C85.0231 101.778 84.6456 101.459 84.2581 101.152C83.5951 100.887 82.9354 100.611 82.269 100.352L82.269 100.346ZM79.073 97.4234L79.6136 97.915L80.62 98.2933L80.0897 97.8772C79.7532 97.7205 79.4097 97.5692 79.073 97.418L79.073 97.4234ZM1028.98 368.373C1027.3 369.318 1025.61 370.291 1023.95 371.215C1024.64 370.912 1025.35 370.593 1026.05 370.291C1027.75 369.372 1029.5 368.41 1031.22 367.465L1028.98 368.373L1028.98 368.373ZM1045.15 359.247L1037.73 363.434C1038.87 362.969 1039.98 362.537 1041.12 362.067C1043.77 360.619 1046.4 359.187 1049.06 357.728C1047.76 358.231 1046.44 358.755 1045.15 359.252L1045.15 359.247ZM1061.68 349.775C1058.76 351.466 1055.83 353.174 1052.96 354.816C1054.5 354.216 1056.03 353.627 1057.58 353.017C1060.48 351.407 1063.42 349.743 1066.35 348.095C1064.79 348.667 1063.24 349.213 1061.68 349.77L1061.68 349.775ZM1078.81 339.871C1075.21 341.962 1071.67 343.994 1068.09 346.069C1069.95 345.388 1071.85 344.664 1073.72 343.972C1077.21 342 1080.67 340.077 1084.2 338.067C1082.39 338.683 1080.61 339.266 1078.81 339.866L1078.81 339.871ZM1095.69 329.903C1091.85 332.177 1088.01 334.463 1084.22 336.689C1086.16 336.03 1088.08 335.397 1090.02 334.722C1093.89 332.512 1097.8 330.259 1101.7 328.006C1099.7 328.638 1097.68 329.287 1095.69 329.903ZM1113.13 319.539C1108.93 322.057 1104.79 324.505 1100.62 326.979C1102.73 326.315 1104.84 325.661 1106.95 324.98C1111.03 322.614 1115.14 320.22 1119.27 317.794C1117.22 318.388 1115.18 318.956 1113.13 319.534L1113.13 319.539ZM1130.72 308.906C1126.22 311.635 1121.73 314.347 1117.28 317.027C1119.47 316.4 1121.7 315.714 1123.9 315.071C1128.31 312.477 1132.73 309.879 1137.17 307.258C1135.01 307.82 1132.86 308.366 1130.72 308.906ZM1148.51 298.04C1143.83 300.92 1139.18 303.773 1134.56 306.583C1136.77 306.01 1138.97 305.475 1141.19 304.886C1145.76 302.168 1150.41 299.348 1155.05 296.549C1152.87 297.052 1150.69 297.554 1148.51 298.04ZM1166.71 286.813C1161.75 289.887 1156.82 292.918 1151.89 295.955C1154.14 295.447 1156.41 294.896 1158.66 294.372C1163.55 291.427 1168.39 288.531 1173.32 285.538C1171.11 285.97 1168.91 286.397 1166.71 286.813ZM1185.02 275.347C1179.93 278.557 1174.83 281.777 1169.82 284.9C1172.03 284.473 1174.22 284.068 1176.44 283.625C1181.42 280.583 1186.48 277.46 1191.54 274.342C1189.36 274.694 1187.2 275.012 1185.03 275.347L1185.02 275.347ZM1203.69 263.585C1198.34 266.978 1193.07 270.274 1187.76 273.624C1189.98 273.273 1192.22 272.905 1194.45 272.543C1199.67 269.323 1204.89 266.087 1210.16 262.801C1208 263.072 1205.84 263.331 1203.69 263.585ZM104.832 133.116C105.546 134.116 106.249 135.126 106.957 136.137C109.092 136.115 111.23 136.083 113.362 136.072C112.59 135.115 111.812 134.175 111.036 133.23C108.973 133.186 106.902 133.154 104.832 133.122L104.832 133.116ZM101.775 128.891C102.485 129.864 103.189 130.842 103.893 131.819C105.919 131.852 107.946 131.879 109.965 131.922C109.197 130.998 108.422 130.085 107.647 129.167C105.692 129.069 103.733 128.983 101.775 128.891ZM98.6672 124.725C99.3778 125.665 100.092 126.605 100.799 127.556C102.706 127.643 104.61 127.729 106.518 127.821C105.76 126.935 105.002 126.049 104.237 125.168C102.384 125.017 100.527 124.86 98.6706 124.72L98.6672 124.725ZM95.5393 120.64C96.2397 121.543 96.9435 122.44 97.6371 123.353C99.4322 123.488 101.224 123.634 103.012 123.785C102.265 122.937 101.523 122.078 100.772 121.235C99.031 121.029 97.2869 120.83 95.5393 120.64ZM92.3909 116.642C93.0776 117.496 93.7543 118.366 94.4343 119.23C96.1071 119.409 97.7798 119.592 99.4458 119.787C98.7046 118.966 97.9565 118.15 97.2086 117.345C95.6072 117.101 93.9956 116.88 92.3909 116.648L92.3909 116.642ZM89.1813 112.703C89.8545 113.514 90.5175 114.34 91.1838 115.162C92.7308 115.383 94.2778 115.605 95.818 115.832C95.0973 115.059 94.3628 114.308 93.6385 113.546C92.1528 113.265 90.6705 112.973 89.178 112.703L89.1813 112.703ZM85.9547 108.883C86.6007 109.64 87.2466 110.391 87.8859 111.153C89.2969 111.407 90.701 111.671 92.1052 111.936C91.4083 111.217 90.7079 110.51 90.0074 109.796C88.6611 109.483 87.308 109.181 85.9547 108.883ZM82.7008 105.139C83.3196 105.841 83.9452 106.533 84.5572 107.241C85.7982 107.511 87.0393 107.781 88.2734 108.062C87.6343 107.424 86.9985 106.776 86.3525 106.144C85.1352 105.809 83.9214 105.469 82.7008 105.139ZM79.4811 101.535C80.0319 102.135 80.5691 102.751 81.1166 103.356C82.2079 103.642 83.2889 103.939 84.3737 104.237C83.7786 103.664 83.1837 103.086 82.5853 102.524C81.555 102.189 80.5181 101.859 79.4845 101.535L79.4811 101.535ZM76.2239 98.0393C76.7067 98.5526 77.186 99.0713 77.6654 99.5846C78.5529 99.8602 79.4402 100.136 80.3208 100.417C79.8108 99.9466 79.2941 99.4765 78.7806 99.0065C77.9272 98.6823 77.0771 98.3581 76.2205 98.0393L76.2239 98.0393ZM73.0381 94.738C73.4053 95.1108 73.7759 95.4836 74.1398 95.8619C74.7892 96.0996 75.4385 96.3319 76.0845 96.5697C75.6866 96.2185 75.2787 95.8727 74.8776 95.5215C74.2689 95.2513 73.6467 95.0028 73.0348 94.738L73.0381 94.738ZM70.0258 91.6961C70.2161 91.8852 70.4099 92.0635 70.6002 92.2526C70.9369 92.3931 71.2666 92.539 71.6031 92.6794C71.4127 92.5173 71.2157 92.3661 71.0253 92.204C70.692 92.0365 70.3589 91.8636 70.0258 91.6961ZM999.565 382.918C997.988 383.815 996.39 384.728 994.819 385.608C995.411 385.349 995.982 385.111 996.573 384.852C998.273 383.928 1000.01 382.956 1001.73 382.01C1001.01 382.307 1000.28 382.621 999.562 382.918L999.565 382.918ZM1015.98 373.603C1013.65 374.932 1011.38 376.207 1009.06 377.525C1010.19 377.05 1011.31 376.591 1012.43 376.115C1014.83 374.786 1017.21 373.489 1019.62 372.155C1018.41 372.63 1017.18 373.127 1015.98 373.603ZM1032.76 363.883C1029.82 365.595 1026.86 367.319 1023.95 368.999C1025.51 368.378 1027.09 367.724 1028.66 367.092C1031.52 365.487 1034.42 363.839 1037.3 362.213C1035.78 362.786 1034.28 363.315 1032.76 363.883ZM1049.82 353.93C1046.27 356.021 1042.77 358.053 1039.26 360.106C1041.08 359.42 1042.93 358.696 1044.76 357.999C1048.24 356.021 1051.7 354.054 1055.22 352.039C1053.41 352.677 1051.61 353.314 1049.82 353.935L1049.82 353.93ZM1066.72 343.902C1062.98 346.123 1059.23 348.354 1055.52 350.553C1057.45 349.867 1059.35 349.219 1061.3 348.522C1065.11 346.322 1068.95 344.096 1072.78 341.876C1070.77 342.54 1068.72 343.254 1066.72 343.902ZM1084.33 333.333C1080.2 335.835 1076.08 338.321 1072 340.763C1074.12 340.066 1076.26 339.342 1078.4 338.628C1082.36 336.311 1086.38 333.928 1090.4 331.55C1088.36 332.172 1086.36 332.734 1084.33 333.339L1084.33 333.333ZM1102.05 322.592C1097.58 325.31 1093.14 327.995 1088.69 330.691C1090.87 330.032 1093.06 329.351 1095.25 328.671C1099.69 326.039 1104.08 323.462 1108.56 320.793C1106.39 321.398 1104.21 322.003 1102.05 322.592ZM1119.88 311.608C1115.27 314.466 1110.65 317.34 1106.11 320.117C1108.31 319.512 1110.49 318.923 1112.7 318.302C1117.23 315.579 1121.83 312.785 1126.43 309.997C1124.24 310.543 1122.06 311.078 1119.88 311.602L1119.88 311.608ZM1138.18 300.266C1133.21 303.368 1128.32 306.383 1123.39 309.441C1125.67 308.879 1127.98 308.263 1130.27 307.685C1135.08 304.762 1139.9 301.833 1144.77 298.851C1142.57 299.332 1140.37 299.802 1138.18 300.266L1138.18 300.266ZM1156.54 288.698C1151.47 291.908 1146.4 295.107 1141.38 298.251C1143.61 297.77 1145.83 297.311 1148.07 296.814C1153.08 293.74 1158.1 290.633 1163.16 287.504C1160.95 287.915 1158.75 288.304 1156.54 288.704L1156.54 288.698ZM1175.21 276.849C1169.92 280.232 1164.66 283.566 1159.43 286.878C1161.7 286.462 1163.98 286.019 1166.26 285.586C1171.41 282.388 1176.62 279.119 1181.84 275.834C1179.63 276.169 1177.41 276.531 1175.21 276.849ZM1194.19 264.671C1188.72 268.199 1183.29 271.668 1177.87 275.142C1180.1 274.813 1182.34 274.461 1184.57 274.115C1189.98 270.717 1195.33 267.367 1200.78 263.92C1198.58 264.174 1196.38 264.428 1194.19 264.671ZM96.7836 133.008C97.4499 134.083 98.113 135.164 98.7726 136.25C100.955 136.212 103.135 136.185 105.314 136.158C104.59 135.132 103.863 134.105 103.132 133.089C101.017 133.057 98.9018 133.024 96.7836 133.008ZM93.9853 128.572C94.6551 129.62 95.3319 130.663 95.9949 131.722C98.062 131.738 100.129 131.765 102.193 131.792C101.472 130.798 100.755 129.793 100.027 128.81C98.0178 128.723 96.0016 128.642 93.9853 128.572ZM91.1532 124.201C91.8196 125.217 92.486 126.233 93.149 127.259C95.1108 127.33 97.0726 127.4 99.0276 127.481C98.3035 126.514 97.5826 125.541 96.855 124.585C94.9578 124.444 93.0538 124.325 91.1532 124.201ZM88.2836 119.889C88.9466 120.867 89.6028 121.862 90.259 122.85C92.1155 122.969 93.9685 123.093 95.8215 123.223C95.1041 122.288 94.3765 121.37 93.6522 120.446C91.8672 120.257 90.0823 120.062 88.2871 119.889L88.2836 119.889ZM85.363 115.67C86.0193 116.604 86.6687 117.55 87.318 118.495C89.0657 118.663 90.8065 118.852 92.5439 119.036C91.8298 118.133 91.1057 117.247 90.3849 116.356C88.712 116.118 87.0393 115.891 85.3597 115.67L85.363 115.67ZM82.4016 111.525C83.0544 112.428 83.714 113.325 84.36 114.238C85.9681 114.449 87.5798 114.654 89.1813 114.881C88.4842 114.027 87.7872 113.179 87.0835 112.336C85.5262 112.06 83.9657 111.79 82.4016 111.525ZM79.4098 107.462C80.0455 108.311 80.6847 109.164 81.3171 110.023C82.8063 110.272 84.2921 110.531 85.7779 110.791C85.1013 109.991 84.4247 109.186 83.7412 108.392C82.2997 108.073 80.858 107.759 79.4131 107.457L79.4098 107.462ZM76.4143 103.513C77.0229 104.296 77.6212 105.101 78.223 105.895C79.5797 106.176 80.9329 106.452 82.2826 106.744C81.6196 105.993 80.9565 105.247 80.2867 104.501C78.9982 104.166 77.7062 103.842 76.4108 103.513L76.4143 103.513ZM73.3407 99.6386C73.9221 100.363 74.4967 101.092 75.0713 101.821C76.2919 102.124 77.5057 102.443 78.7229 102.751C78.0939 102.059 77.4512 101.389 76.8154 100.708C75.6594 100.346 74.5035 99.9898 73.3407 99.6386ZM70.2772 95.9051C70.8144 96.5535 71.3584 97.191 71.8922 97.8448C72.9292 98.1474 73.9696 98.4445 75.0032 98.7579C74.432 98.1582 73.8575 97.5638 73.283 96.9695C72.2833 96.6129 71.2837 96.2563 70.2806 95.9051L70.2772 95.9051ZM67.2275 92.3012C67.6899 92.8415 68.1591 93.371 68.618 93.9113C69.4748 94.2031 70.3248 94.5165 71.1782 94.8191C70.6886 94.322 70.2092 93.8195 69.7162 93.3278C68.89 92.982 68.0605 92.6362 67.2275 92.3012ZM64.2526 88.9081C64.6027 89.2971 64.9462 89.7023 65.293 90.0914C65.9083 90.3399 66.527 90.5776 67.139 90.8262C66.7684 90.4696 66.4047 90.1076 66.0341 89.751C65.439 89.4646 64.8475 89.1836 64.2526 88.9027L64.2526 88.9081ZM61.3318 85.7257L61.8726 86.3146C62.1785 86.4551 62.4879 86.5847 62.7939 86.7306L62.2194 86.2011C61.9269 86.039 61.6276 85.8877 61.3318 85.7311L61.3318 85.7257ZM969.815 397.841C968.517 398.576 967.204 399.332 965.905 400.067C966.456 399.824 966.997 399.586 967.548 399.338C968.935 398.576 970.353 397.782 971.75 397.009C971.114 397.279 970.455 397.576 969.819 397.841L969.815 397.841ZM986.853 388.094C984.599 389.401 982.372 390.682 980.141 391.962C981.226 391.492 982.317 391.022 983.405 390.547C985.721 389.256 987.978 388.029 990.307 386.721C989.144 387.192 988.012 387.629 986.853 388.094ZM1003.6 378.336C1000.6 380.081 997.58 381.848 994.581 383.593C996.138 382.956 997.743 382.258 999.307 381.616C1002.23 379.962 1005.19 378.276 1008.12 376.612C1006.61 377.196 1005.11 377.769 1003.6 378.341L1003.6 378.336ZM1020.47 368.4C1017.16 370.372 1013.85 372.349 1010.58 374.267C1012.29 373.608 1013.95 372.998 1015.66 372.322C1019.05 370.377 1022.47 368.394 1025.91 366.4C1024.1 367.06 1022.27 367.751 1020.47 368.4ZM1037.81 358.08C1034.03 360.333 1030.3 362.543 1026.55 364.779C1028.5 364.066 1030.44 363.358 1032.4 362.629C1036.14 360.457 1039.85 358.312 1043.61 356.113C1041.66 356.778 1039.74 357.426 1037.81 358.074L1037.81 358.08ZM1055.3 347.484C1051.2 349.986 1047.08 352.498 1043.03 354.935C1045.15 354.211 1047.31 353.428 1049.44 352.687C1053.39 350.359 1057.41 347.954 1061.42 345.571C1059.37 346.225 1057.34 346.847 1055.3 347.484ZM1073.06 336.662C1068.65 339.369 1064.31 342.005 1059.95 344.664C1062.07 343.988 1064.17 343.362 1066.31 342.665C1070.71 340.039 1075.11 337.424 1079.55 334.744C1077.39 335.381 1075.21 336.04 1073.06 336.662ZM1091.05 325.521C1086.43 328.39 1081.81 331.253 1077.23 334.074C1079.45 333.425 1081.68 332.772 1083.91 332.102C1088.42 329.373 1092.97 326.612 1097.53 323.84C1095.35 324.424 1093.21 324.959 1091.04 325.521L1091.05 325.521ZM1109.29 314.109C1104.42 317.178 1099.56 320.226 1094.74 323.224C1097.02 322.624 1099.32 321.982 1101.62 321.36C1106.36 318.464 1111.15 315.503 1115.95 312.532C1113.73 313.061 1111.51 313.591 1109.29 314.104L1109.29 314.109ZM1127.84 302.412C1122.76 305.632 1117.72 308.798 1112.67 311.975C1114.93 311.446 1117.17 310.927 1119.44 310.376C1124.46 307.269 1129.45 304.205 1134.5 301.055C1132.27 301.52 1130.06 301.963 1127.84 302.412ZM1146.51 290.46C1141.28 293.826 1136.03 297.214 1130.89 300.488C1133.16 300.023 1135.45 299.521 1137.73 299.035C1142.84 295.841 1148.02 292.562 1153.2 289.282C1150.97 289.676 1148.73 290.082 1146.5 290.46L1146.51 290.46ZM1165.6 278.168C1160.13 281.707 1154.74 285.159 1149.33 288.65C1151.58 288.261 1153.83 287.866 1156.09 287.461C1161.43 284.079 1166.77 280.707 1172.16 277.271C1169.97 277.584 1167.79 277.876 1165.6 278.173L1165.6 278.168ZM1184.8 265.638C1179.21 269.301 1173.64 272.943 1168.12 276.525C1170.33 276.217 1172.53 275.931 1174.75 275.612C1180.23 272.106 1185.75 268.567 1191.3 264.99C1189.13 265.222 1186.97 265.422 1184.8 265.643L1184.8 265.638ZM88.6949 132.96C89.3138 134.11 89.9292 135.261 90.5413 136.423C92.7581 136.369 94.9714 136.326 97.1848 136.282C96.515 135.18 95.8452 134.083 95.1686 132.997C93.0129 132.981 90.8574 132.965 88.6949 132.965L88.6949 132.96ZM86.1621 128.302C86.7809 129.421 87.3962 130.55 88.0049 131.679C90.1265 131.679 92.2413 131.695 94.3561 131.711C93.6796 130.636 92.9995 129.577 92.3162 128.513C90.2659 128.437 88.2157 128.361 86.1621 128.302ZM83.6018 123.731C84.2206 124.812 84.8224 125.914 85.4344 127.005C87.454 127.059 89.4669 127.13 91.4797 127.2C90.7997 126.152 90.1095 125.12 89.4193 124.082C87.4847 123.958 85.5432 123.839 83.6018 123.731ZM80.9668 119.219C81.589 120.278 82.2113 121.337 82.8267 122.402C84.7273 122.505 86.6278 122.613 88.525 122.731C87.8484 121.721 87.165 120.711 86.4817 119.711C84.649 119.538 82.8097 119.376 80.9703 119.214L80.9668 119.219ZM78.2876 114.762C78.9166 115.794 79.5491 116.815 80.1713 117.852C81.9596 118.009 83.7412 118.171 85.5262 118.333C84.8564 117.366 84.1901 116.388 83.5134 115.432C81.7727 115.205 80.0353 114.973 78.2876 114.762ZM75.5948 110.418C76.2102 111.396 76.8257 112.379 77.4343 113.362C79.1207 113.562 80.797 113.779 82.4766 113.995C81.8033 113.055 81.13 112.12 80.4499 111.19C78.8384 110.926 77.2165 110.672 75.5981 110.418L75.5948 110.418ZM72.8545 106.133C73.4664 107.062 74.0614 108.019 74.6632 108.959C76.2272 109.202 77.7911 109.44 79.3518 109.688C78.6921 108.797 78.019 107.922 77.3527 107.041C75.8567 106.733 74.3607 106.42 72.8579 106.128L72.8545 106.133ZM70.053 101.957C70.6479 102.832 71.2429 103.718 71.8312 104.604C73.2795 104.885 74.7211 105.177 76.1626 105.469C75.5099 104.62 74.8434 103.777 74.1804 102.935C72.8102 102.594 71.4299 102.275 70.053 101.951L70.053 101.957ZM67.2036 97.8502C67.7917 98.6877 68.3903 99.5144 68.9717 100.363C70.2671 100.665 71.5658 100.962 72.8545 101.27C72.2356 100.498 71.6168 99.7197 70.9912 98.9524C69.7299 98.585 68.4719 98.2068 67.2003 97.8502L67.2036 97.8502ZM64.368 93.8951C64.9188 94.6462 65.4628 95.3972 66.0068 96.159C67.173 96.4832 68.3291 96.8128 69.4885 97.1478C68.8934 96.4292 68.2985 95.7052 67.6967 94.9974C66.5951 94.6192 65.4764 94.2679 64.368 93.9005L64.368 93.8951ZM61.4917 90.0211C61.9983 90.6911 62.4947 91.3773 62.9979 92.0527C64.0043 92.3769 65.0038 92.7119 66.0068 93.0469C65.4628 92.4201 64.9121 91.7933 64.3647 91.172C63.4059 90.7884 62.4573 90.3993 61.4917 90.0265L61.4917 90.0211ZM58.6118 86.3362C59.0538 86.8927 59.4924 87.4546 59.9276 88.0166C60.7471 88.3245 61.5665 88.6271 62.3824 88.9405C61.9031 88.411 61.4169 87.8923 60.934 87.3682C60.1622 87.017 59.387 86.6766 58.6118 86.3362ZM55.7526 82.7864C56.1027 83.2132 56.4563 83.6293 56.8031 84.0561C57.415 84.3209 58.0168 84.6018 58.6254 84.8666C58.2446 84.4667 57.8538 84.0777 57.4729 83.6833C56.9017 83.3861 56.3304 83.0781 55.7559 82.7864L55.7526 82.7864ZM53.1277 79.6148C53.2976 79.8093 53.4575 80.02 53.6276 80.2145L54.5284 80.6629C54.3551 80.49 54.1851 80.3063 54.0117 80.1334L53.1277 79.6093L53.1277 79.6148ZM940.603 412.635L936.662 414.882L938.076 414.234C939.402 413.499 940.745 412.748 942.071 412.013C941.575 412.224 941.096 412.424 940.603 412.635ZM957.317 402.974C955.087 404.276 952.836 405.6 950.629 406.875C951.754 406.383 952.914 405.854 954.043 405.351C956.253 404.109 958.48 402.844 960.714 401.575C959.575 402.045 958.449 402.504 957.317 402.969L957.317 402.974ZM974.208 393.119C971.271 394.848 968.398 396.506 965.477 398.214C966.861 397.636 968.197 397.112 969.584 396.523C972.617 394.794 975.636 393.081 978.679 391.341C977.19 391.93 975.691 392.535 974.208 393.113L974.208 393.119ZM990.912 383.177C987.716 385.084 984.51 387.002 981.345 388.883C983.085 388.186 984.816 387.51 986.567 386.808C989.78 384.949 993.044 383.037 996.291 381.14C994.506 381.81 992.691 382.518 990.912 383.177ZM1008.55 372.609C1004.79 374.878 1001.08 377.104 997.359 379.335C999.31 378.601 1001.29 377.828 1003.26 377.077C1006.91 374.937 1010.54 372.825 1014.22 370.653C1012.32 371.328 1010.45 371.949 1008.55 372.614L1008.55 372.609ZM1026.08 361.948C1021.98 364.45 1017.88 366.946 1013.81 369.415C1015.89 368.675 1017.99 367.913 1020.08 367.162C1024.12 364.769 1028.18 362.343 1032.25 359.917C1030.19 360.603 1028.13 361.284 1026.08 361.948L1026.08 361.948ZM1043.71 351.11C1039.46 353.746 1035.21 356.378 1031.02 358.944C1033.16 358.236 1035.28 357.556 1037.43 356.832C1041.67 354.287 1045.97 351.677 1050.27 349.062C1048.09 349.732 1045.88 350.45 1043.71 351.104L1043.71 351.11ZM1062.04 339.752C1057.37 342.659 1052.77 345.496 1048.14 348.365C1050.38 347.679 1052.65 346.955 1054.9 346.247C1059.44 343.486 1063.94 340.768 1068.51 337.969C1066.34 338.585 1064.2 339.147 1062.03 339.747L1062.04 339.752ZM1080.2 328.303C1075.4 331.34 1070.59 334.387 1065.86 337.353C1068.11 336.721 1070.36 336.094 1072.63 335.441C1077.35 332.539 1082.14 329.557 1086.92 326.58C1084.68 327.152 1082.43 327.747 1080.2 328.303ZM1098.83 316.487C1093.78 319.712 1088.78 322.878 1083.78 326.039C1086.05 325.461 1088.33 324.883 1090.62 324.289C1095.55 321.225 1100.49 318.145 1105.48 315.022C1103.25 315.53 1101.05 316 1098.83 316.487ZM1117.59 304.438C1112.36 307.815 1107.14 311.165 1101.96 314.477C1104.25 313.963 1106.55 313.418 1108.85 312.883C1114 309.646 1119.16 306.388 1124.36 303.103C1122.1 303.552 1119.84 304.005 1117.6 304.438L1117.59 304.438ZM1136.66 292.07C1131.27 295.587 1125.89 299.089 1120.57 302.525C1122.84 302.082 1125.12 301.639 1127.4 301.18C1132.64 297.846 1137.96 294.437 1143.28 291.016C1141.07 291.384 1138.87 291.713 1136.66 292.07ZM1156 279.448C1150.4 283.122 1144.87 286.716 1139.32 290.341C1141.56 289.974 1143.81 289.617 1146.06 289.228C1151.59 285.684 1157.07 282.182 1162.64 278.578C1160.42 278.876 1158.21 279.167 1156 279.448ZM1175.46 266.557C1169.76 270.355 1164.04 274.164 1158.42 277.854C1160.66 277.563 1162.91 277.238 1165.16 276.931C1170.72 273.321 1176.38 269.62 1182.03 265.914C1179.84 266.13 1177.65 266.346 1175.46 266.551L1175.46 266.557ZM80.5997 132.997C81.1608 134.213 81.7114 135.44 82.2622 136.666C84.5164 136.596 86.7706 136.52 89.0181 136.455C88.3993 135.277 87.767 134.121 87.1379 132.954C84.9619 132.954 82.7756 132.981 80.5962 132.992L80.5997 132.997ZM78.3285 128.129C78.8928 129.318 79.4471 130.517 80.0048 131.722C82.157 131.706 84.3091 131.69 86.4579 131.684C85.8357 130.539 85.2032 129.404 84.5708 128.275C82.49 128.221 80.4092 128.172 78.3249 128.135L78.3285 128.129ZM75.9927 123.326C76.5673 124.487 77.1384 125.655 77.7063 126.832C79.7565 126.87 81.8032 126.919 83.85 126.973C83.2244 125.86 82.599 124.747 81.9665 123.645C79.9775 123.531 77.9919 123.423 75.9961 123.326L75.9927 123.326ZM73.6298 118.614C74.2043 119.744 74.7822 120.873 75.35 122.013C77.2982 122.105 79.243 122.207 81.1844 122.315C80.5554 121.229 79.9265 120.143 79.2906 119.068C77.4071 118.906 75.5201 118.76 73.6298 118.614ZM71.219 113.957C71.8004 115.054 72.3717 116.161 72.9429 117.269C74.7858 117.409 76.632 117.544 78.4679 117.701C77.8356 116.648 77.1962 115.605 76.5536 114.562C74.7788 114.357 73.0006 114.151 71.219 113.957ZM68.7711 109.391C69.3457 110.445 69.9102 111.509 70.4779 112.574C72.2255 112.763 73.9628 112.963 75.7036 113.168C75.0677 112.147 74.4185 111.142 73.7759 110.137C72.1133 109.883 70.4473 109.634 68.7744 109.391L68.7711 109.391ZM66.2517 104.907C66.8297 105.922 67.4077 106.944 67.9789 107.976C69.6041 108.208 71.2258 108.435 72.8408 108.678C72.2084 107.705 71.576 106.733 70.9368 105.771C69.3762 105.474 67.8155 105.188 66.2482 104.907L66.2517 104.907ZM63.6915 100.503C64.2695 101.476 64.8508 102.443 65.4186 103.432C66.9248 103.702 68.4242 103.983 69.9236 104.264C69.3048 103.34 68.6929 102.41 68.0673 101.497C66.6121 101.162 65.1536 100.827 63.6915 100.503ZM61.1075 96.2023C61.6719 97.1208 62.2294 98.0447 62.7836 98.9686C64.1708 99.2712 65.5546 99.5684 66.9349 99.8872C66.323 99.0119 65.7145 98.142 65.099 97.2775C63.7696 96.9155 62.4403 96.5535 61.1075 96.2023ZM58.4861 92.004C59.0267 92.8469 59.5537 93.7114 60.0875 94.5651C61.3591 94.8947 62.6238 95.2459 63.8885 95.5863C63.2902 94.765 62.6816 93.9546 62.073 93.1387C60.8831 92.7551 59.6863 92.3769 58.4861 92.004ZM55.7899 87.9031C56.3135 88.692 56.837 89.4808 57.3539 90.2751C58.4725 90.6155 59.5979 90.945 60.7063 91.3016C60.1418 90.556 59.5673 89.832 58.9961 89.0972C57.9252 88.6974 56.861 88.2975 55.7865 87.9085L55.7899 87.9031ZM53.097 83.948C53.5798 84.645 54.0728 85.3312 54.5522 86.0336C55.5178 86.374 56.4767 86.736 57.4321 87.0926C56.905 86.4281 56.378 85.7581 55.8444 85.0989C54.9331 84.7045 54.0117 84.3371 53.097 83.948ZM50.4009 80.1226C50.8258 80.7116 51.2474 81.3059 51.6691 81.9003C52.451 82.219 53.2262 82.5486 54.0049 82.8674C53.556 82.3271 53.1174 81.7814 52.6653 81.2465C51.9105 80.8737 51.1625 80.49 50.4009 80.1226ZM47.759 76.5512C48.0786 76.9726 48.3915 77.4049 48.7076 77.8317C49.2618 78.0911 49.8228 78.3396 50.3735 78.6044C50.0301 78.2099 49.6868 77.8155 49.34 77.4211C48.8164 77.1239 48.2861 76.8376 47.7557 76.5458L47.759 76.5512ZM45.1376 73.1526L45.6681 73.828C45.9536 73.9793 46.236 74.1414 46.5215 74.2981L45.9468 73.6821C45.6748 73.5093 45.4097 73.3255 45.1343 73.1526L45.1376 73.1526ZM911.23 427.693C909.775 428.536 908.367 429.33 906.926 430.162L907.85 429.73L912.464 427.158L911.23 427.693ZM927.557 418.157C925.323 419.459 923.072 420.783 920.842 422.079C921.869 421.62 922.878 421.182 923.905 420.723C926.19 419.432 928.516 418.092 930.821 416.773C929.733 417.233 928.638 417.703 927.557 418.157ZM944.254 408.334C941.619 409.906 938.991 411.468 936.39 413.002C937.747 412.424 939.076 411.873 940.439 411.284C943.278 409.652 946.077 408.069 948.943 406.41C947.392 407.037 945.798 407.718 944.254 408.334ZM961.587 397.998C958.334 399.943 955.087 401.877 951.836 403.811C953.574 403.104 955.328 402.38 957.072 401.661C960.2 399.84 963.359 397.992 966.497 396.161C964.838 396.798 963.236 397.371 961.587 397.998ZM978.999 387.467C975.289 389.731 971.566 392.011 967.911 394.21C969.887 393.448 971.927 392.605 973.912 391.827C977.472 389.731 981.086 387.57 984.697 385.414C982.786 386.111 980.896 386.786 978.999 387.467ZM996.658 376.715C992.602 379.2 988.624 381.61 984.602 384.063C986.608 383.328 988.57 382.653 990.589 381.902C994.697 379.449 998.763 377.045 1002.9 374.559C1000.82 375.272 998.722 376.018 996.662 376.715L996.658 376.715ZM1014.41 365.709C1010.15 368.356 1005.89 371.004 1001.68 373.597C1003.84 372.857 1006.01 372.111 1008.18 371.35C1012.34 368.837 1016.56 366.26 1020.77 363.693C1018.64 364.38 1016.52 365.039 1014.41 365.709ZM1032.63 354.33C1028.01 357.237 1023.42 360.106 1018.86 362.953C1021.11 362.229 1023.43 361.435 1025.7 360.695C1030.17 357.961 1034.65 355.216 1039.17 352.423C1036.98 353.076 1034.81 353.698 1032.63 354.33ZM1050.92 342.794C1046.14 345.815 1041.38 348.819 1036.64 351.801C1038.88 351.142 1041.07 350.532 1043.32 349.856C1048.09 346.901 1052.89 343.929 1057.71 340.93C1055.45 341.546 1053.16 342.195 1050.91 342.794L1050.92 342.794ZM1069.57 330.875C1064.59 334.074 1059.6 337.289 1054.7 340.406C1056.99 339.785 1059.3 339.147 1061.61 338.51C1066.42 335.5 1071.32 332.399 1076.2 329.314C1073.97 329.859 1071.78 330.351 1069.57 330.88L1069.57 330.875ZM1088.46 318.729C1083.22 322.122 1078.06 325.423 1072.87 328.757C1075.16 328.201 1077.46 327.639 1079.77 327.06C1084.93 323.802 1090.06 320.571 1095.27 317.254C1093 317.745 1090.72 318.259 1088.46 318.729ZM1107.53 306.291C1102.17 309.798 1096.81 313.31 1091.51 316.741C1093.8 316.249 1096.09 315.757 1098.39 315.244C1103.61 311.91 1108.9 308.506 1114.19 305.097C1111.95 305.518 1109.75 305.886 1107.53 306.291ZM1126.82 293.621C1121.29 297.273 1115.78 300.893 1110.31 304.476C1112.59 304.059 1114.87 303.633 1117.15 303.195C1122.59 299.688 1128.06 296.139 1133.57 292.556C1131.32 292.907 1129.06 293.286 1126.82 293.621ZM1146.47 280.605C1140.75 284.408 1135.07 288.169 1129.41 291.908C1131.68 291.562 1133.95 291.189 1136.22 290.827C1141.83 287.175 1147.45 283.511 1153.11 279.8C1150.9 280.075 1148.68 280.351 1146.47 280.61L1146.47 280.605ZM1166.25 267.345C1160.43 271.263 1154.6 275.196 1148.87 279.016C1151.09 278.746 1153.32 278.481 1155.55 278.2C1161.23 274.467 1167.02 270.62 1172.79 266.783C1170.61 266.978 1168.43 267.167 1166.25 267.351L1166.25 267.345ZM1146.03 279.357C1151.84 275.493 1157.73 271.527 1163.62 267.572C962.016 283.955 777.668 244.063 593.534 204.221C481.718 180.026 369.98 155.852 254.51 144.317C353.766 158.673 449.595 183.322 545.981 208.122C734.005 256.496 924.16 305.399 1146.03 279.362L1146.03 279.357ZM1126.4 292.373C1132.1 288.607 1137.86 284.787 1143.63 280.95C922.644 306.356 733.08 257.577 545.628 209.349C443.995 183.203 342.984 157.225 237.928 143.323C329.177 159.77 416.717 186.272 505.093 213.033C693.643 270.133 886.002 328.4 1126.4 292.373ZM961.312 396.701C965.212 394.356 969.135 391.995 973.086 389.596C593.945 524.09 436.974 381.572 289.584 247.662C247.087 209.051 205.38 171.17 159.354 140.88M72.4363 133.078C72.9394 134.364 73.4324 135.656 73.9254 136.952C76.2102 136.866 78.4951 136.785 80.7799 136.709C80.2189 135.467 79.6544 134.229 79.0831 133.003C76.8697 133.019 74.6565 133.046 72.4363 133.078ZM70.4132 128.01C70.9232 129.275 71.4366 130.534 71.9398 131.803C74.1227 131.771 76.3054 131.744 78.4849 131.722C77.9171 130.507 77.3561 129.291 76.7781 128.086C74.6599 128.048 72.5349 128.032 70.4099 128.005L70.4132 128.01ZM68.3461 123.002C68.8663 124.239 69.3831 125.471 69.8931 126.724C71.9773 126.746 74.0649 126.762 76.1457 126.795C75.5745 125.611 74.9998 124.428 74.4217 123.261C72.3988 123.169 70.376 123.083 68.3461 123.007L68.3461 123.002ZM66.2416 118.074C66.7651 119.273 67.2784 120.484 67.7953 121.694C69.7911 121.77 71.7834 121.856 73.7759 121.943C73.1945 120.781 72.6029 119.635 72.0112 118.49C70.0902 118.344 68.1693 118.204 66.2416 118.074ZM64.0894 113.227C64.6163 114.389 65.1329 115.572 65.6532 116.75C67.5504 116.875 69.4409 117.01 71.3279 117.15C70.7363 116.015 70.1414 114.892 69.543 113.768C67.7307 113.579 65.9082 113.406 64.0926 113.227L64.0894 113.227ZM61.8622 108.435C62.3994 109.58 62.9401 110.72 63.4705 111.871C65.2519 112.044 67.0337 112.212 68.8085 112.395C68.2236 111.309 67.6388 110.223 67.0472 109.153C65.3234 108.905 63.5996 108.662 61.8622 108.435ZM59.6116 103.761C60.1487 104.858 60.6892 105.944 61.2162 107.052C62.8993 107.268 64.572 107.506 66.2482 107.738C65.66 106.684 65.0719 105.625 64.4735 104.582C62.8585 104.302 61.2333 104.031 59.6116 103.761ZM57.2994 99.1307C57.8401 100.19 58.3705 101.254 58.9043 102.324C60.4751 102.583 62.0492 102.837 63.6132 103.107C63.025 102.102 62.4335 101.103 61.8385 100.103C60.3289 99.7737 58.8227 99.4387 57.303 99.1307L57.2994 99.1307ZM54.9603 94.6408C55.4907 95.6349 56.0074 96.6453 56.5276 97.6503C57.9999 97.9475 59.4653 98.2608 60.9307 98.5742C60.3357 97.5963 59.727 96.6399 59.1218 95.6728C57.7413 95.3162 56.3475 94.9866 54.9603 94.6462L54.9603 94.6408ZM52.5259 90.1994C53.0563 91.1558 53.5867 92.1121 54.1102 93.0793C55.4498 93.4035 56.786 93.733 58.1222 94.068C57.5476 93.1603 56.9696 92.2634 56.3882 91.3665C55.103 90.9721 53.8212 90.583 52.5259 90.2048L52.5259 90.1994ZM50.0779 85.904C50.5947 86.7955 51.1182 87.6762 51.6282 88.5731C52.8386 88.9189 54.0457 89.2701 55.2458 89.6321C54.6882 88.7892 54.141 87.9409 53.5765 87.1088C52.4171 86.6982 51.2476 86.3038 50.0779 85.904ZM47.5958 81.7057C48.0854 82.5108 48.5682 83.3267 49.0476 84.1425C50.1322 84.5046 51.2067 84.8828 52.2844 85.2556C51.7506 84.4829 51.2135 83.7103 50.673 82.9431C49.6495 82.5216 48.6227 82.111 47.5925 81.7057L47.5958 81.7057ZM45.0798 77.6426C45.5321 78.3558 45.9775 79.0907 46.423 79.8093C47.3444 80.1659 48.2759 80.5117 49.1938 80.8791C48.7009 80.1983 48.201 79.5283 47.7013 78.8583C46.8274 78.4531 45.9571 78.0424 45.0765 77.6426L45.0798 77.6426ZM42.5366 73.7416C42.931 74.3359 43.3256 74.9303 43.7165 75.5354C44.4883 75.8758 45.2532 76.2324 46.0182 76.589C45.5659 75.9947 45.0968 75.4165 44.6412 74.8276C43.9476 74.4548 43.2371 74.109 42.5366 73.7416ZM40.0139 70.0134C40.3369 70.4781 40.6702 70.932 40.9897 71.402C41.5337 71.6776 42.0709 71.9586 42.6116 72.2395C42.2749 71.8181 41.9315 71.402 41.5915 70.9806C41.0646 70.6618 40.5476 70.3322 40.0172 70.0134L40.0139 70.0134ZM37.6644 66.6635C37.8208 66.8797 37.967 67.1012 38.12 67.3173C38.3818 67.4686 38.6504 67.6145 38.9122 67.7712C38.7456 67.5767 38.5859 67.3767 38.4193 67.1822L37.6644 66.6689L37.6644 66.6635ZM1192.8 253.481C1190.65 253.595 1188.5 253.719 1186.35 253.821C1180.33 257.906 1174.41 261.861 1168.46 265.865C1170.65 265.681 1172.84 265.498 1175.03 265.298C1180.95 261.37 1186.82 257.479 1192.8 253.481L1192.8 253.481ZM1201.72 252.979C1199.58 253.108 1197.44 253.227 1195.3 253.346C1189.39 257.301 1183.57 261.164 1177.72 265.054C1179.93 264.844 1182.15 264.611 1184.36 264.39C1190.13 260.608 1195.89 256.826 1201.72 252.979ZM1210.72 252.395C1208.57 252.541 1206.43 252.676 1204.3 252.806C1198.55 256.609 1192.83 260.37 1187.14 264.104C1189.34 263.877 1191.54 263.655 1193.75 263.412C1199.36 259.786 1205.04 256.085 1210.72 252.39L1210.72 252.395ZM1219.8 251.73C1217.64 251.893 1215.49 252.071 1213.33 252.222C1207.76 255.853 1202.15 259.527 1196.64 263.088C1198.84 262.845 1201.04 262.596 1203.25 262.337C1208.71 258.868 1214.28 255.275 1219.8 251.73L1219.8 251.73ZM1228.95 251.012C1226.8 251.19 1224.65 251.358 1222.51 251.525C1217.04 255.037 1211.55 258.571 1206.15 262.007C1208.34 261.742 1210.55 261.445 1212.75 261.17C1218.12 257.82 1223.51 254.437 1228.95 251.012ZM1238.08 250.212C1235.98 250.407 1233.87 250.585 1231.77 250.763C1226.4 254.156 1221.11 257.463 1215.8 260.781C1217.99 260.5 1220.19 260.224 1222.39 259.927C1227.56 256.761 1232.85 253.449 1238.09 250.207L1238.08 250.212ZM1247.39 249.31C1245.25 249.526 1243.1 249.753 1240.96 249.953C1235.87 253.108 1230.68 256.383 1225.66 259.468C1227.81 259.171 1229.96 258.863 1232.12 258.555C1237.17 255.529 1242.28 252.417 1247.39 249.315L1247.39 249.31ZM1256.73 248.348C1254.61 248.58 1252.48 248.797 1250.36 249.018C1245.39 252.044 1240.36 255.129 1235.45 258.085C1237.61 257.766 1239.77 257.42 1241.93 257.09C1246.84 254.21 1251.77 251.304 1256.74 248.354L1256.73 248.348ZM1266.17 247.295C1264.05 247.543 1261.94 247.77 1259.84 248.002C1255.02 250.866 1250.2 253.74 1245.44 256.539C1247.55 256.204 1249.66 255.891 1251.78 255.545C1256.56 252.806 1261.32 250.099 1266.17 247.289L1266.17 247.295ZM1275.71 246.127C1273.6 246.392 1271.48 246.662 1269.37 246.916C1264.72 249.618 1260.11 252.276 1255.51 254.913C1257.62 254.562 1259.73 254.2 1261.85 253.838C1266.47 251.26 1271.03 248.77 1275.71 246.133L1275.71 246.127ZM1285.17 244.906C1283.12 245.182 1281.08 245.452 1279.04 245.711C1274.55 248.251 1270.13 250.698 1265.69 253.178C1267.79 252.806 1269.9 252.411 1272 252.028C1276.39 249.656 1280.74 247.332 1285.17 244.906ZM1294.65 243.61C1292.7 243.891 1290.75 244.145 1288.81 244.409C1284.53 246.754 1280.36 248.975 1276.12 251.266C1278.14 250.888 1280.16 250.531 1282.18 250.142C1286.32 247.981 1290.47 245.819 1294.65 243.61L1294.65 243.61ZM1304.28 242.178C1302.36 242.47 1300.45 242.756 1298.53 243.037C1294.55 245.149 1290.65 247.17 1286.69 249.245C1288.68 248.856 1290.67 248.456 1292.66 248.056C1296.51 246.127 1300.39 244.155 1304.28 242.183L1304.28 242.178ZM1313.9 240.676C1312.05 240.973 1310.2 241.281 1308.35 241.567C1304.69 243.442 1301.06 245.263 1297.42 247.1C1299.35 246.7 1301.3 246.263 1303.24 245.852C1306.77 244.166 1310.35 242.399 1313.9 240.676ZM1323.48 239.109C1321.77 239.401 1320.06 239.671 1318.35 239.952C1315.07 241.556 1311.79 243.15 1308.53 244.723C1310.28 244.344 1312.03 243.966 1313.78 243.577C1316.99 242.118 1320.24 240.6 1323.47 239.109L1323.48 239.109ZM1333.16 237.401C1331.59 237.682 1330.01 237.958 1328.43 238.234C1325.62 239.541 1322.8 240.865 1320 242.145C1321.48 241.805 1322.97 241.47 1324.46 241.119C1327.36 239.881 1330.25 238.655 1333.16 237.396L1333.16 237.401ZM1342.52 235.678C1341.22 235.926 1339.91 236.18 1338.61 236.418C1336.39 237.385 1334.15 238.396 1331.95 239.341C1333.06 239.071 1334.19 238.795 1335.31 238.52C1337.72 237.569 1340.11 236.645 1342.52 235.672L1342.52 235.678ZM1351.06 234.052C1350.37 234.192 1349.68 234.316 1348.98 234.451C1347.56 235.03 1346.11 235.64 1344.69 236.207C1345.22 236.072 1345.74 235.932 1346.27 235.797L1351.06 234.052ZM83.5644 142.998C81.1538 143.128 78.7466 143.269 76.3326 143.415C91.7414 185.629 103.074 233.689 114.617 282.679C137.07 377.995 160.347 476.791 216.168 542.368C298.006 638.5 450.027 663.306 772.302 501.559C463.164 648.734 316.036 616.964 233.644 519.443C180.59 456.643 154.441 366.627 129.152 279.573C115.167 231.426 101.438 184.192 83.5612 143.004L83.5644 142.998ZM92.1631 142.534C89.7831 142.653 87.3998 142.788 85.0198 142.917C102.812 184.078 116.51 231.199 130.461 279.232C155.709 366.157 181.821 456.043 234.708 518.643C319.484 618.99 473.29 649.269 803.052 485.182C485.475 634.875 336.354 596.859 250.674 494.605C201.011 435.333 172.719 354.514 145.291 276.163C128.767 228.962 112.556 182.663 92.1665 142.534L92.1631 142.534ZM100.714 142.156C98.3646 142.253 96.0187 142.356 93.6658 142.469C113.943 182.549 130.107 228.713 146.577 275.763C173.97 354.016 202.221 434.723 251.739 493.816C339.907 599.042 495.712 635.826 834.628 468.551C506.623 621.691 355.275 576.078 265.747 468.27C220.027 413.218 190.471 341.989 161.734 272.732C142.554 226.509 123.732 181.182 100.718 142.156L100.714 142.156ZM109.228 141.815C106.905 141.902 104.583 141.988 102.258 142.085C125.136 181.053 143.887 226.222 162.995 272.268C191.698 341.443 221.22 412.591 266.811 467.487C358.468 577.856 515.252 622.74 861.6 454.341L863.15 453.477C524.827 609.059 371.932 553.818 278.157 439.801C237.142 389.936 207.467 328.854 178.516 269.269C156.549 224.056 134.996 179.713 109.224 141.815L109.228 141.815ZM117.683 141.523C115.399 141.594 113.11 141.68 110.822 141.761C136.421 179.588 157.882 223.732 179.747 268.739C208.664 328.254 238.305 389.272 279.228 439.023C374.077 554.342 529.763 609.226 878.128 445.113C879.658 444.254 881.147 443.438 882.69 442.568C537.342 596.475 384.845 528.634 286.708 408.053C251.497 364.79 223.301 314.763 195.69 265.773C170.785 221.587 146.356 178.254 117.683 141.518L117.683 141.523ZM126.102 141.307C123.858 141.361 121.614 141.41 119.367 141.48C147.821 178.129 172.121 221.241 196.89 265.184C224.474 314.125 252.643 364.104 287.782 407.28C386.688 528.807 541.051 596.572 893.938 436.149C896.195 434.863 898.473 433.55 900.734 432.264C449.619 626.062 327.035 437.397 213.308 262.245C185.306 219.117 157.831 176.827 126.102 141.302L126.102 141.307ZM134.49 141.124C132.283 141.161 130.076 141.21 127.87 141.259C159.333 176.692 186.639 218.728 214.468 261.586C328.789 437.651 452.114 627.37 911.142 426.31C913.596 424.889 916.106 423.414 918.594 421.955C485.72 600.463 354.011 423.408 231.427 258.679C200.144 216.643 169.455 175.412 134.49 141.124ZM142.806 140.994C140.657 141.021 138.508 141.059 136.356 141.097C170.995 175.277 201.473 216.216 232.532 257.955C355.66 423.414 488.103 601.224 927.387 416.817C930.627 414.92 933.816 413.072 937.077 411.154C521.974 574.922 381.323 409.49 250.11 255.064C215.335 214.136 181.216 173.996 142.803 140.994L142.806 140.994ZM151.109 140.924C149.015 140.935 146.923 140.945 144.826 140.967C182.838 173.85 216.681 213.676 251.171 254.27C382.843 409.236 523.994 575.354 944.009 407.032C947.654 404.87 951.343 402.661 955.022 400.462C558.004 549.398 408.938 395.523 269.463 251.401C230.965 211.618 193.187 172.597 151.109 140.924ZM167.568 140.902C165.634 140.897 163.699 140.891 161.761 140.891C207.199 171.051 248.475 208.549 290.522 246.749C438.368 381.075 595.9 524.041 978.676 386.197C982.844 383.663 987.019 381.129 991.212 378.568C629.819 498.955 465.497 367.659 310.603 243.864C263.798 206.458 217.851 169.744 167.572 140.897L167.568 140.902ZM175.749 140.967C173.899 140.945 172.053 140.918 170.203 140.907C219.789 169.63 265.216 205.923 311.477 242.896C466.84 367.065 631.719 498.776 996.295 375.467C1000.7 372.76 1005.19 369.961 1009.66 367.178C665.784 473.944 494.624 353.784 332.679 239.995C281.2 203.821 230.645 168.312 175.749 140.967ZM183.871 141.059C182.168 141.032 180.461 141.021 178.754 140.999C232.801 168.22 282.696 203.275 333.492 238.968C495.886 353.076 667.535 473.636 1014.05 364.455C1018.77 361.521 1023.47 358.604 1028.24 355.616C701.739 449.203 524.494 339.936 356.027 236.024C299.434 201.114 243.83 166.821 183.871 141.059ZM191.987 141.215C190.42 141.188 188.852 141.151 187.285 141.124C246.22 166.783 301.018 200.568 356.771 234.959C525.697 339.153 703.473 448.733 1032.25 353.093C1037.09 350.051 1041.97 346.96 1046.87 343.864C737.721 424.667 555.229 326.109 380.911 231.955C318.698 198.353 257.519 165.324 191.99 141.221L191.987 141.215ZM200.059 141.405C198.685 141.367 197.311 141.324 195.938 141.291C260.232 165.302 320.405 197.802 381.585 230.842C556.379 325.25 739.394 424.111 1050.5 341.557C1055.58 338.337 1060.71 335.052 1065.86 331.75C773.948 400.326 587.094 312.315 407.666 227.751C339.197 195.484 271.806 163.73 200.055 141.399L200.059 141.405ZM208.083 141.626C206.984 141.594 205.883 141.567 204.781 141.534C274.991 163.811 341.114 194.965 408.271 226.617C588.186 311.413 775.573 399.678 1069.16 329.632C1074.41 326.261 1079.66 322.905 1084.96 319.485C810.342 376.353 620.34 298.565 436.756 223.424C361.26 192.523 286.85 162.066 208.083 141.626ZM216.144 141.907L213.866 141.826C290.696 162.266 363.48 192.048 437.297 222.262C621.394 297.614 811.97 375.596 1088.03 317.502C1093.4 314.028 1098.87 310.441 1104.32 306.874C847.164 352.595 655.359 284.862 468.802 218.934C385.332 189.438 302.909 160.315 216.141 141.907L216.144 141.907ZM224.09 142.21L223.471 142.183C307.733 160.667 388.014 189.027 469.284 217.745C656.366 283.852 848.728 351.785 1107.1 305.059C1112.68 301.417 1118.26 297.759 1123.89 294.048C884.516 329.259 692.695 271.192 504.678 214.255C411.977 186.18 320.198 158.387 224.09 142.21ZM651.388 198.872C526.523 176.379 400.744 153.729 271.469 144.825C381.051 156.949 487.41 179.956 593.84 202.989C778.555 242.956 963.488 282.96 1165.83 266.103C1171.84 262.067 1177.82 258.063 1183.91 253.94C1003.32 262.261 828.273 230.739 651.392 198.877L651.388 198.872ZM200.31 140.135L202.452 140.194L201.684 140C200.919 139.951 200.151 139.897 199.382 139.848L200.31 140.135ZM192.273 139.946C193.357 139.967 194.445 139.984 195.53 140.011C195.013 139.854 194.496 139.686 193.979 139.53L190.634 139.341L192.273 139.946ZM184.211 139.789C185.581 139.811 186.948 139.843 188.315 139.87C187.584 139.605 186.85 139.351 186.119 139.092C184.786 139.022 183.446 138.968 182.107 138.898C182.807 139.195 183.511 139.492 184.208 139.789L184.211 139.789ZM176.123 139.697L180.767 139.746L178.326 138.719C176.786 138.644 175.249 138.568 173.705 138.503C174.511 138.903 175.317 139.297 176.123 139.697ZM167.98 139.632C169.69 139.638 171.397 139.649 173.104 139.665C172.233 139.238 171.37 138.806 170.496 138.379C168.816 138.314 167.133 138.249 165.45 138.184C166.293 138.66 167.136 139.146 167.976 139.627L167.98 139.632ZM159.806 139.616C161.649 139.616 163.488 139.622 165.328 139.627C164.41 139.108 163.485 138.595 162.567 138.082C160.782 138.022 158.994 137.974 157.205 137.92C158.072 138.487 158.939 139.049 159.806 139.616ZM151.612 139.649C153.536 139.638 155.464 139.616 157.389 139.611C156.488 139.027 155.59 138.427 154.686 137.849C152.785 137.795 150.888 137.736 148.984 137.693C149.864 138.341 150.738 138.995 151.612 139.654L151.612 139.649ZM143.35 139.713C145.38 139.692 147.403 139.676 149.433 139.665C148.518 138.984 147.6 138.319 146.686 137.644C144.724 137.606 142.762 137.563 140.8 137.531C141.653 138.255 142.503 138.984 143.354 139.713L143.35 139.713ZM135.088 139.848C137.172 139.811 139.253 139.778 141.337 139.751C140.453 138.995 139.573 138.244 138.685 137.498C136.652 137.471 134.615 137.45 132.579 137.428C133.419 138.233 134.258 139.038 135.088 139.854L135.088 139.848ZM126.751 140.021C128.903 139.967 131.052 139.919 133.201 139.876C132.348 139.043 131.488 138.228 130.631 137.406C128.543 137.385 126.452 137.363 124.361 137.358C125.16 138.238 125.956 139.135 126.751 140.021ZM118.387 140.232C120.59 140.167 122.787 140.119 124.987 140.065C124.171 139.157 123.351 138.255 122.528 137.358C120.39 137.358 118.255 137.358 116.116 137.358C116.874 138.314 117.632 139.27 118.387 140.232ZM109.983 140.518C112.223 140.437 114.464 140.356 116.701 140.286C115.932 139.308 115.161 138.33 114.389 137.358C112.209 137.368 110.023 137.395 107.84 137.417C108.558 138.449 109.272 139.481 109.983 140.518ZM101.52 140.848C103.808 140.751 106.096 140.659 108.384 140.578C107.66 139.519 106.929 138.481 106.198 137.439C103.985 137.46 101.768 137.487 99.548 137.525C100.211 138.627 100.864 139.74 101.52 140.853L101.52 140.848ZM93.0232 141.226C95.342 141.113 97.6575 141.016 99.9762 140.918C99.3064 139.794 98.64 138.671 97.9635 137.558C95.7126 137.601 93.4584 137.644 91.2008 137.703C91.8129 138.876 92.4214 140.048 93.0232 141.232L93.0232 141.226ZM84.479 141.68C86.8251 141.55 89.171 141.415 91.5135 141.297C90.9016 140.102 90.2931 138.914 89.6743 137.73C87.3929 137.79 85.1046 137.866 82.8198 137.936C83.374 139.178 83.9283 140.421 84.4757 141.675L84.479 141.68ZM75.8737 142.172C78.2604 142.026 80.6438 141.891 83.0272 141.756C82.473 140.486 81.9087 139.233 81.3444 137.979C79.0358 138.055 76.7236 138.13 74.4116 138.217C74.9047 139.53 75.3909 140.848 75.8771 142.166L75.8737 142.172ZM-180.004 184.97C-92.926 160.553 -8.31715 147.434 74.4457 142.264C73.956 140.929 73.4597 139.605 72.9565 138.282C-8.25245 141.518 -92.049 153.459 -179.616 178.016L-180.004 176.795C-92.4636 152.249 -8.698 140.286 72.4736 137.023C71.9737 135.715 71.4808 134.408 70.9708 133.111C-8.62317 134.397 -91.5696 145.144 -179.616 169.83L-180.004 168.609C-91.9945 143.933 -9.09241 133.165 70.4608 131.841C69.9508 130.555 69.4374 129.275 68.9172 128.005C-9.02442 127.308 -91.0868 136.828 -179.616 161.65L-180.004 160.429C-91.5184 135.618 -9.50037 126.065 68.4004 126.714C67.8802 125.449 67.3464 124.201 66.8126 122.948C-9.44263 120.224 -90.604 128.513 -179.616 153.475L-180.004 152.254C-91.0493 127.313 -9.94239 118.987 66.2618 121.64C65.7382 120.414 65.2078 119.198 64.6741 117.988C-9.86414 113.195 -90.0974 120.197 -179.616 145.295L-180.004 144.074C-90.5631 118.993 -10.3945 111.952 64.0894 116.658C63.5555 115.459 63.0284 114.259 62.4845 113.076C-10.3027 106.176 -89.5874 111.866 -179.616 137.109L-180.004 135.888C-90.0803 110.677 -10.8671 104.923 61.852 111.715C61.3149 110.547 60.7742 109.386 60.2268 108.235C-10.7687 99.1902 -89.074 103.54 -179.616 128.929L-180.004 127.708C-89.5873 102.356 -11.3568 97.9312 59.5673 106.852C59.0198 105.717 58.4623 104.604 57.9081 103.48C-11.2513 92.2418 -88.5503 95.2189 -179.613 120.754L-180 119.533C-89.0944 94.041 -11.8837 90.9667 57.2043 102.048C56.6536 100.952 56.0924 99.871 55.5349 98.7903C-11.7545 85.315 -88.02 86.8927 -179.609 112.568L-179.997 111.347C-88.6049 85.7202 -12.4447 84.0291 54.7665 97.3045C54.2191 96.2617 53.6683 95.2135 53.1107 94.1815C-12.2714 78.4261 -87.4794 78.5557 -179.609 104.388L-179.997 103.167C-88.1221 77.4049 -13.0364 77.1077 52.2504 92.6146C51.7098 91.6312 51.176 90.6371 50.6252 89.6645C-12.8086 71.5749 -86.9252 70.2242 -179.609 96.2131L-179.997 94.992C-87.6256 69.0949 -13.6552 70.2458 49.6766 88.0274C49.1327 87.0818 48.5818 86.1363 48.0276 85.2016C-13.4036 64.7454 -86.3914 61.898 -179.609 88.0328L-179.997 86.8117C-87.1531 60.7795 -14.3181 63.3784 47.0111 83.4618C46.4807 82.5811 45.9333 81.722 45.3961 80.8521C-13.9951 57.9645 -85.827 53.5556 -179.609 79.8471L-179.997 78.626C-86.6974 52.4642 -15.0559 56.5543 44.2266 78.961C43.7165 78.1559 43.2031 77.3563 42.6829 76.562C-14.6241 51.1999 -85.266 45.2132 -179.609 71.6722L-179.997 70.4511C-86.2656 44.1704 -15.8549 49.7626 41.3297 74.5088C40.8639 73.8118 40.4049 73.0986 39.9357 72.4016C-15.2429 44.4946 -84.671 36.8762 -179.609 63.4919L-179.997 62.2708C-85.895 35.8875 -16.756 42.9601 38.2832 70.0405C37.8785 69.4623 37.4774 68.8788 37.0695 68.3115C-15.9298 37.8272 -84.093 28.5285 -179.609 55.3116L-179.997 54.0905C-85.5857 27.6207 -17.7828 36.1793 35.0668 65.5721C34.7404 65.129 34.4106 64.6914 34.0808 64.2537C-16.6812 31.1652 -83.5455 20.1915 -179.613 47.1313L-180 45.9102C-85.3883 19.381 -18.9932 29.4092 31.6158 61.0443C31.439 60.8228 31.2622 60.6013 31.0854 60.3797C-17.402 24.5842 -82.9302 11.8383 -179.613 38.951L-180 37.7299C-86.1057 11.406 -21.4581 22.4122 26.7471 55.5548C-19.3196 17.7817 -83.1919 3.73365 -179.613 30.7707L-180 29.5496C-88.0846 3.77687 -25.5892 15.0585 20.1068 48.574C-23.437 10.4065 -85.1674 -3.89012 -179.613 22.5905L-180 21.3694C-90.1348 -3.82529 -29.7371 7.63469 13.5857 41.3446C-27.5747 2.97182 -87.2141 -11.4977 -179.613 14.4102L-180 13.1891C-78.058 -15.3933 -15.7393 4.74944 25.8597 51.859C28.2466 54.1175 30.5586 56.4679 32.8365 58.8723C35.3152 61.0659 37.7596 63.3082 40.1362 65.6423C42.6863 67.7441 45.1783 69.9216 47.6332 72.1531C50.3464 74.2279 53.0189 76.3567 55.6403 78.5557C58.4044 80.5171 61.1244 82.5378 63.8036 84.6126C66.7616 86.5469 69.6788 88.5407 72.5553 90.5938C75.5609 92.4039 78.5393 94.2571 81.4735 96.1698C84.6831 97.9313 87.8451 99.7629 90.9867 101.638C94.3424 103.318 97.6746 105.053 100.966 106.836C104.352 108.375 107.715 109.959 111.043 111.59C114.657 113.065 118.234 114.605 121.791 116.172C125.605 117.566 129.39 119.009 133.15 120.495C137.087 121.775 141.011 123.088 144.904 124.45C148.94 125.606 152.962 126.784 156.957 128.01C161.173 129.053 165.372 130.123 169.554 131.241C173.937 132.165 178.309 133.122 182.661 134.11C187.23 134.915 191.786 135.742 196.329 136.607C200.926 137.26 205.509 137.947 210.082 138.654C215.032 139.2 219.969 139.778 224.896 140.378C229.931 140.783 234.956 141.21 239.978 141.664C380.456 148.78 516.578 173.294 651.637 197.618C829.103 229.589 1004.72 261.218 1185.92 252.568C1286.61 184.305 1397.32 104.977 1519.16 13.3026L1520 14.2914C1398.83 105.469 1288.67 184.419 1188.39 252.433C1190.55 252.325 1192.71 252.211 1194.87 252.087C1292.95 186.385 1400.67 109.959 1519.16 21.4775L1520 22.4717C1402.2 110.445 1295.04 186.499 1197.37 251.957C1199.53 251.833 1201.7 251.693 1203.86 251.563C1299.34 188.428 1404.05 114.913 1519.16 29.6578L1520 30.6574C1405.6 115.383 1301.47 188.514 1206.44 251.395C1208.59 251.255 1210.74 251.131 1212.89 250.979C1305.75 190.432 1407.45 119.841 1519.16 37.8381L1520 38.8376C1409.03 120.295 1307.93 190.486 1215.55 250.78C1217.73 250.623 1219.9 250.455 1222.07 250.282C1312.26 192.356 1410.92 124.709 1519.16 46.013L1519.99 47.0233C1412.52 125.158 1314.47 192.41 1224.78 250.077C1226.96 249.899 1229.14 249.71 1231.33 249.526C1318.83 194.236 1414.44 129.529 1519.17 54.1878L1519.99 55.2036C1416.09 129.95 1321.11 194.263 1234.15 249.277C1236.27 249.094 1238.37 248.915 1240.49 248.716C1325.36 196.052 1417.88 134.397 1519.17 62.3681L1519.99 63.3893C1419.55 134.813 1327.73 196.041 1243.41 248.429C1245.57 248.218 1247.73 248.002 1249.9 247.781C1332.05 197.797 1421.46 139.157 1519.17 70.543L1519.98 71.5642C1423.14 139.568 1334.45 197.77 1252.87 247.478C1255.04 247.251 1257.2 247.003 1259.37 246.765C1338.79 199.483 1425.08 143.879 1519.18 78.7233L1519.98 79.7499C1426.79 144.274 1341.28 199.418 1262.47 246.425C1264.62 246.181 1266.76 245.944 1268.91 245.69C1345.59 201.12 1428.72 148.569 1519.18 86.9036L1519.98 87.9356C1430.48 148.942 1348.17 201.012 1272.16 245.285C1274.3 245.025 1276.44 244.76 1278.58 244.485C1352.48 202.665 1432.43 153.205 1519.19 95.0785L1519.97 96.1159C1434.21 153.572 1355.13 202.535 1281.93 244.063C1284.07 243.783 1286.22 243.475 1288.36 243.183C1359.46 204.129 1436.18 157.792 1519.19 103.253L1519.96 104.296C1438.02 158.133 1362.22 203.951 1291.88 242.696C1293.94 242.405 1296.01 242.113 1298.08 241.81C1366.42 205.529 1439.9 162.39 1519.19 111.428L1519.96 112.482C1441.89 162.655 1369.43 205.285 1301.97 241.232C1303.95 240.935 1305.93 240.649 1307.9 240.346C1373.46 206.858 1443.67 166.934 1519.2 119.603L1519.95 120.668C1445.76 167.161 1376.67 206.539 1312.1 239.671C1314.03 239.363 1315.97 239.044 1317.91 238.725C1380.63 208.073 1447.53 171.413 1519.21 127.778L1519.95 128.848C1449.69 171.613 1384.01 207.706 1322.36 238.001C1324.23 237.682 1326.11 237.342 1327.99 237.012C1387.87 209.219 1451.43 175.839 1519.22 135.953L1519.94 137.034C1453.74 175.974 1391.59 208.733 1332.95 236.143C1334.69 235.829 1336.43 235.521 1338.17 235.197C1395.19 210.289 1455.38 180.215 1519.23 144.128L1519.93 145.219C1457.92 180.258 1399.36 209.63 1343.82 234.127C1345.39 233.825 1346.97 233.533 1348.55 233.23C1402.65 211.24 1459.42 184.511 1519.24 152.303L1519.91 153.41C1462.25 184.451 1407.45 210.386 1355.12 231.923C1356.47 231.653 1357.82 231.377 1359.17 231.101C1410.29 212.066 1463.56 188.736 1519.26 160.472L1519.9 161.596C1466.87 188.503 1416.07 210.905 1367.2 229.426C1367.99 229.259 1368.78 229.081 1369.57 228.913C1417.81 212.839 1467.62 192.966 1519.28 168.647L1519.88 169.787C1472.49 192.102 1426.64 210.667 1382.14 226.006C1426.82 213.028 1472.48 196.819 1519.3 176.817L1519.86 177.978C1479.72 195.128 1440.43 209.484 1401.88 221.424C1440.64 211.807 1479.77 199.785 1519.33 184.986L1519.83 186.169C1472.8 203.767 1426.38 217.459 1380.46 227.833C1372.97 229.999 1365.49 232.085 1358.05 234.073C1350.1 236.629 1342.22 239.044 1334.35 241.405C1326.21 244.247 1318.11 246.997 1310.07 249.629C1301.54 252.822 1293.05 255.923 1284.66 258.863C1276.04 262.256 1267.53 265.481 1259.06 268.631C1250.44 272.165 1241.9 275.591 1233.44 278.897C1224.38 282.771 1215.39 286.526 1206.52 290.136C1197.11 294.285 1187.83 298.251 1178.63 302.114C1169.7 306.156 1160.86 310.068 1152.12 313.855C1143.19 317.994 1134.36 322.014 1125.63 325.899C1115.02 330.951 1104.6 335.754 1094.29 340.433C1085.05 344.885 1075.93 349.202 1066.92 353.374C1057.79 357.853 1048.77 362.197 1039.86 366.411C1029.27 371.695 1018.81 376.828 1008.51 381.761C998.647 386.743 988.917 391.573 979.332 396.242C969.37 401.337 959.53 406.291 949.851 411.062C939.684 416.325 929.644 421.442 919.778 426.364C909.88 431.529 900.095 436.57 890.476 441.422C880.749 446.55 871.144 451.542 861.689 456.367C851.931 461.565 842.325 466.59 832.846 471.485C468.261 667.569 302.225 645.508 215.114 543.179C159.092 477.369 135.782 378.433 113.297 282.977C101.734 233.9 90.3815 185.753 74.9081 143.528C-7.88538 148.677 -92.5181 161.785 -179.613 186.207L-180 184.986L-180.004 184.97Z" fill="#002832"/>
<defs>
<linearGradient id="paint0_linear_1038_780" x1="1340" y1="310" x2="-180.004" y2="310.011" gradientUnits="userSpaceOnUse">
<stop/>
<stop offset="0.333745" stop-opacity="0.12"/>
<stop offset="0.676435" stop-opacity="0.05"/>
<stop offset="1" stop-opacity="0.12"/>
</linearGradient>
</defs>
</svg>
