<svg xmlns="http://www.w3.org/2000/svg" width="800" height="1126" viewBox="0 0 800 1126" fill="none"><g opacity="0.7"><path opacity="0.7" d="M242.801 348.493C247.017 353.682 251.396 358.871 255.774 363.736C272.639 383.358 290.153 403.467 298.261 430.548C305.721 455.359 304.586 483.576 294.856 512.117C286.261 537.415 271.342 561.74 252.855 580.713C233.72 600.335 211.827 615.579 190.746 630.336C172.746 642.822 154.259 655.795 137.394 671.363C110.636 696.175 87.2847 728.932 70.0952 766.068C52.9057 803.366 41.7163 845.042 37.8244 886.718C33.9324 928.395 37.0136 972.342 46.9056 1013.53C56.6355 1054.88 73.3385 1093.64 94.7443 1125.43L95.0686 1124.94C73.6629 1093.32 57.122 1054.72 47.3921 1013.53C37.5001 972.342 34.4189 928.557 38.3109 887.043C42.2028 845.366 53.3922 803.852 70.5817 766.554C87.7712 729.418 110.961 696.661 137.718 672.012C154.421 656.444 173.07 643.471 190.908 630.984C212.152 616.227 234.044 600.821 253.18 581.2C271.666 562.226 286.586 537.739 295.342 512.442C305.072 483.738 306.37 455.359 298.748 430.386C290.477 403.142 272.964 382.872 256.099 363.412C251.72 358.385 247.342 353.358 243.125 348.168" fill="url(#shape_line_flow_paint_0)"></path></g><g opacity="0.7"><path opacity="0.7" d="M177.286 23.6763C170.313 71.0284 167.719 109.137 169.178 143.678C171.286 196.058 181.989 246.329 200.314 288.978C208.422 307.952 217.503 324.655 227.882 340.06C233.558 348.493 239.882 356.439 246.531 365.034C252.531 372.655 258.693 380.764 264.369 388.872C273.288 401.683 279.45 413.197 283.667 424.872C292.099 448.549 293.234 474.008 286.748 500.766C280.91 525.577 268.91 549.902 253.017 569.199C237.612 588.01 219.449 603.092 202.098 617.687C186.692 630.498 170.8 643.795 156.529 659.687C134.475 684.337 115.664 716.283 102.204 752.122C87.9335 790.23 79.3387 833.204 77.5549 876.178C75.7711 918.179 80.4739 962.774 91.0146 1004.94C101.555 1047.1 117.934 1087.15 138.529 1120.88L139.015 1120.4C118.583 1086.67 102.204 1046.78 91.8254 1004.61C81.2847 962.45 76.7441 918.016 78.3657 876.178C80.1496 833.366 88.5821 790.555 102.853 752.608C116.312 716.77 134.961 684.985 156.854 660.66C171.124 644.768 187.016 631.471 202.422 618.66C219.936 604.065 237.936 588.984 253.504 570.01C269.396 550.55 281.559 526.063 287.396 501.09C293.721 474.495 292.586 447.9 284.153 424.548C279.937 412.71 273.775 401.196 264.693 388.385C259.018 380.277 252.855 372.169 246.855 364.547C240.206 355.952 233.882 348.006 228.368 339.574C217.99 324.33 209.071 307.627 200.8 288.654C182.476 246.167 171.773 196.058 169.665 143.841C168.367 109.299 170.962 71.1907 177.773 24.0006" fill="url(#shape_line_flow_paint_1)"></path></g><g opacity="0.7"><path opacity="0.7" d="M189.449 22.0544C188.313 29.6763 187.178 37.298 186.043 44.7576C180.854 78.4879 175.989 110.435 174.691 140.922C172.583 191.031 178.421 239.356 191.719 280.708C198.043 300.654 204.692 316.384 213.125 331.628C219.936 343.952 229.017 356.439 237.936 368.601C241.341 373.304 244.909 378.331 248.314 383.196C257.882 396.818 264.207 408.007 269.072 419.197C278.639 442.062 281.72 466.711 277.991 492.171C274.585 515.523 265.828 538.875 253.342 558.01C241.341 576.172 226.909 591.092 212.962 605.524C200.314 618.66 187.178 632.282 175.502 648.498C157.664 673.309 143.069 705.256 133.177 740.932C122.474 779.203 117.123 822.339 117.447 865.475C118.42 951.747 142.096 1043.21 182.475 1116.34L183.286 1115.7C142.907 1042.72 119.393 951.422 118.42 865.313C117.934 822.339 123.285 779.365 133.988 741.256C143.88 705.58 158.475 673.796 176.151 649.147C187.827 632.93 200.8 619.47 213.449 606.335C227.395 591.902 241.828 576.983 253.828 558.659C266.477 539.361 275.396 515.847 278.801 492.333C282.531 466.549 279.45 441.9 269.72 418.71C265.017 407.359 258.531 396.331 248.963 382.547C245.558 377.682 241.99 372.818 238.422 367.953C229.665 355.79 220.584 343.303 213.773 331.141C205.341 316.06 198.854 300.492 192.53 280.546C179.394 239.356 173.556 191.193 175.664 141.246C176.962 110.759 181.827 78.9745 187.016 45.2441C188.151 37.7845 189.286 30.1628 190.422 22.541" fill="url(#shape_line_flow_paint_2)"></path></g><g opacity="0.7"><path opacity="0.7" d="M201.449 20.5952C198.368 41.6766 194.314 61.623 190.422 80.9207C186.367 101.029 182.638 120.002 180.205 138.327C174.043 185.679 175.016 232.221 182.962 272.6C186.043 287.843 189.611 304.222 198.205 323.357C205.665 340.222 217.99 357.574 229.828 374.277L232.26 377.682C240.044 388.71 248.152 400.71 254.315 413.521C265.017 435.738 270.045 459.252 269.072 483.414C268.261 505.306 262.585 527.847 253.342 546.659C244.747 564.334 234.206 578.443 223.179 593.524C213.449 606.822 203.395 620.444 194.476 636.822C180.854 661.958 170.313 694.066 163.989 729.581C157.016 768.176 154.583 811.312 157.34 854.61C162.691 940.882 187.827 1034.61 226.422 1111.8L227.395 1110.99C188.962 1034.13 163.826 940.557 158.475 854.61C155.88 811.474 158.151 768.338 165.124 729.905C171.448 694.553 181.989 662.606 195.449 637.633C204.206 621.254 214.26 607.633 223.99 594.497C235.017 579.416 245.558 565.145 254.315 547.307C263.72 528.334 269.234 505.631 270.207 483.414C271.18 458.927 266.153 435.089 255.288 412.71C248.963 399.737 240.855 387.737 233.071 376.547L230.638 373.142C218.8 356.439 206.638 339.249 199.178 322.546C190.746 303.573 187.178 287.357 184.097 272.113C176.151 231.896 175.178 185.679 181.34 138.489C183.773 120.165 187.503 101.191 191.557 81.0828C195.449 61.7852 199.503 41.8387 202.584 20.7573" fill="url(#shape_line_flow_paint_3)"></path></g><g opacity="0.7"><path opacity="0.7" d="M213.611 18.9733C209.233 47.8386 202.26 73.2986 195.611 97.9476C192.043 111.083 188.638 123.407 185.881 135.57C175.665 180.327 171.773 224.923 174.367 264.329C175.34 278.762 176.475 294.978 183.286 314.924C189.773 333.736 202.908 353.52 216.206 372.007C224.314 383.52 232.909 395.358 239.72 407.845C251.72 429.575 258.531 452.116 260.153 474.819C261.612 495.252 259.342 516.82 253.504 535.469C247.99 552.821 240.855 567.253 233.071 582.335C226.422 595.47 219.449 609.254 213.449 625.471C204.206 650.93 197.719 683.201 194.8 718.391C191.395 757.149 192.205 800.609 197.07 844.069C206.8 930.016 233.395 1026.02 270.045 1107.43L271.18 1106.61C234.531 1025.37 207.936 929.53 198.368 843.907C193.503 800.609 192.692 757.311 196.097 718.715C199.016 683.688 205.503 651.741 214.584 626.281C220.422 610.065 227.395 596.443 234.044 583.308C241.828 568.064 249.125 553.631 254.639 536.118C260.477 517.306 262.909 495.414 261.45 474.657C259.666 451.63 252.693 428.927 240.693 406.872C233.72 394.223 225.287 382.385 217.017 370.871C203.881 352.547 190.908 332.925 184.422 314.276C177.611 294.654 176.475 278.437 175.665 264.167C173.07 224.923 176.962 180.652 187.178 136.056C189.935 124.056 193.341 111.732 196.908 98.5963C203.719 73.9471 210.692 48.3252 215.071 19.2976" fill="url(#shape_line_flow_paint_4)"></path></g><g opacity="0.7"><path opacity="0.7" d="M225.774 17.3518C220.584 51.5686 209.881 81.407 200.314 107.516C197.07 116.272 194.151 124.543 191.395 132.651C177.448 174.652 168.529 217.301 165.61 255.897V256.87C164.475 271.464 163.34 286.708 168.367 306.492C172.583 323.033 182.962 342.655 199.989 366.331C201.773 368.763 203.557 371.196 205.179 373.628C212.314 383.358 218.963 392.602 224.963 402.332C238.098 423.575 247.017 445.143 251.234 466.387C256.098 490.711 255.125 511.306 253.504 524.442C251.234 542.118 247.017 557.037 242.639 572.929C239.071 585.578 235.341 598.876 232.422 614.281C227.557 640.39 225.125 672.499 225.611 707.364C226.098 746.446 229.99 790.068 236.963 833.528C250.747 918.503 278.802 1016.61 313.991 1103.05L315.451 1102.07C280.423 1015.96 252.369 917.854 238.585 833.042C231.612 789.744 227.72 746.284 227.233 707.364C226.747 672.661 229.179 640.552 234.044 614.768C236.963 599.362 240.693 586.227 244.26 573.578C248.801 557.686 253.017 542.604 255.288 524.766C256.909 511.469 257.882 490.549 253.017 465.9C248.639 444.494 239.72 422.764 226.422 401.196C220.422 391.466 213.611 382.223 206.638 372.493C204.854 370.061 203.233 367.628 201.449 365.358C184.584 341.844 174.205 322.546 170.151 306.168C165.124 286.708 166.259 271.789 167.394 257.356V256.383C170.313 217.95 179.232 175.625 193.016 133.786C195.773 125.678 198.692 117.408 201.935 108.651C211.503 82.3799 222.368 52.5415 227.557 18.0004" fill="url(#shape_line_flow_paint_5)"></path></g><g opacity="0.7"><path opacity="0.7" d="M237.774 15.7302C231.936 54.3254 217.341 85.7855 204.53 113.354C201.936 119.029 199.341 124.543 196.908 129.732C179.557 168.814 165.773 209.517 156.854 247.302L156.367 249.086C153.124 263.032 149.718 277.465 153.286 297.897C157.178 320.276 171.935 344.277 183.773 360.493C187.503 365.682 191.395 370.709 194.962 375.574C200.314 382.71 205.341 389.358 210.206 396.331C225.125 417.737 235.666 437.846 242.315 457.468C248.477 475.306 252.207 493.955 253.666 513.09C255.126 532.388 253.991 549.253 253.018 567.091C252.369 578.119 251.72 589.632 251.396 602.768C250.909 629.525 252.693 661.796 256.423 696.012C260.801 736.392 267.612 778.879 276.694 822.663C294.37 906.178 323.073 1004.13 357.776 1098.34L359.398 1097.37C324.857 1003.32 296.153 905.53 278.477 822.177C269.396 778.554 262.585 736.067 258.207 695.85C254.477 661.796 252.693 629.687 253.18 602.93C253.342 589.794 254.153 578.443 254.801 567.416C255.937 549.415 256.909 532.55 255.45 513.09C253.991 493.793 250.261 474.982 244.098 456.819C237.288 437.035 226.747 416.764 211.665 395.196C206.8 388.223 201.773 381.574 196.422 374.439C192.692 369.574 188.962 364.547 185.233 359.358C173.557 343.304 158.962 319.627 155.232 297.735C151.827 277.951 155.07 263.843 158.313 250.059L158.8 248.275C167.557 210.49 181.341 170.111 198.692 131.192C201.125 125.84 203.557 120.489 206.152 114.813C219.125 87.0828 233.72 55.6228 239.558 16.541" fill="url(#shape_line_flow_paint_6)"></path></g><g opacity="0.7"><path opacity="0.7" d="M249.936 14.2705C243.45 56.7577 224.801 88.7043 208.422 117.083C206.476 120.489 204.53 123.894 202.584 127.137C182.151 163.138 163.827 200.76 148.421 239.031L147.61 240.977C142.097 254.437 136.421 268.383 138.529 289.627C140.961 315.087 157.989 341.682 167.881 355.141C173.719 363.25 179.881 370.871 185.719 378.169C189.124 382.547 192.53 386.764 195.773 390.98C212.638 412.872 225.125 431.846 233.72 449.197C241.99 465.576 248.639 482.927 253.99 502.387C260.964 527.361 264.045 548.442 268.099 575.199C268.91 580.551 269.72 586.064 270.531 591.902C275.072 621.579 280.748 653.039 287.396 685.147C295.829 727.148 305.721 769.797 316.748 812.123C336.695 888.827 364.425 980.936 401.723 1093.8L403.507 1092.83C366.209 979.963 338.478 888.016 318.532 811.312C307.667 768.987 297.775 726.337 289.342 684.336C282.694 652.228 277.018 620.93 272.477 591.254C271.666 585.416 270.856 579.902 270.045 574.551C266.153 547.794 262.91 526.55 255.936 501.414C250.423 481.955 243.774 464.279 235.504 447.738C226.747 430.386 214.26 411.251 197.233 389.196C193.989 384.98 190.584 380.601 187.016 376.385C181.178 369.088 175.178 361.466 169.34 353.52C159.61 340.222 142.907 314.114 140.637 289.465C138.691 269.032 144.205 255.41 149.556 242.275L150.367 240.329C165.773 202.22 183.935 164.598 204.368 128.759C206.314 125.516 208.098 122.11 210.206 118.705C226.747 90.1638 245.558 57.8929 252.044 14.9192" fill="url(#shape_line_flow_paint_7)"></path></g><g opacity="0.7"><path opacity="0.7" d="M261.936 12.649C254.963 58.5417 230.963 92.11 211.827 119.029L208.26 124.219C185.719 156.165 163.827 190.058 139.826 230.599L138.853 232.221C131.394 244.707 122.961 258.816 123.61 281.194C124.096 301.141 134.313 325.952 151.664 349.628C159.772 360.817 168.367 370.709 176.638 380.439L181.016 385.466C199.341 407.034 213.773 424.548 224.801 440.765C237.936 460.062 247.342 478.063 254.153 491.36C267.774 518.766 277.342 542.929 289.505 580.551C297.613 605.687 306.694 636.174 317.397 671.363L325.667 699.256C334.911 730.067 345.289 765.095 356.316 801.42C367.019 836.447 378.371 872.286 390.209 910.232C408.858 969.585 427.993 1030.88 445.345 1089.1L447.453 1088.13C430.102 1029.91 410.966 968.45 392.317 909.259C380.479 871.313 369.128 835.312 358.425 800.447C347.397 764.122 336.857 729.094 327.775 698.283L319.505 670.39C308.964 635.201 299.721 604.714 291.613 579.578C279.45 541.631 269.883 517.469 256.099 489.901C249.288 476.441 239.882 458.441 226.584 438.981C215.557 422.764 200.962 405.088 182.638 383.52L178.259 378.493C169.989 368.926 161.556 358.871 153.448 347.844C136.421 324.817 126.366 300.492 125.88 281.194C125.394 259.951 133.177 246.815 140.637 234.004L141.61 232.383C165.61 191.841 187.341 158.111 209.881 126.165L213.449 121.138C232.909 93.8938 256.909 60.0012 264.045 13.4598" fill="url(#shape_line_flow_paint_8)"></path></g><g opacity="0.7"><path opacity="0.7" d="M274.099 11.0272C266.477 60.1632 237.936 93.4071 214.909 120.002L213.936 121.137C186.368 153.246 161.719 184.057 139.826 211.301L130.421 222.977C120.691 235.139 109.664 248.761 108.691 272.437C107.88 293.194 117.934 319.952 135.61 343.79C145.34 356.925 155.718 368.277 166.421 379.628C174.205 387.899 181.503 395.521 188.638 402.818C198.692 413.197 208.098 422.926 216.206 432.008C231.449 449.197 244.098 466.062 254.639 480.171C273.937 506.279 290.478 531.577 308.802 569.199C320.802 593.686 333.938 624.335 349.181 662.606C362.803 697.31 378.371 739.148 396.371 790.555C436.913 905.205 467.237 1001.37 489.292 1084.4L491.562 1083.42C469.508 1000.23 439.021 904.07 398.479 789.257C380.479 737.851 364.911 696.012 351.289 661.147C336.046 622.714 322.748 592.065 310.748 567.416C292.261 529.469 275.721 504.171 256.261 477.9C245.882 463.63 233.071 446.765 217.665 429.575C209.557 420.494 200.152 410.602 190.097 400.223C182.962 392.926 175.665 385.304 168.043 377.034C157.34 365.682 147.124 354.493 137.394 341.52C120.204 318.33 110.312 292.384 111.123 272.437C111.934 250.059 122.15 237.41 132.042 225.085L141.448 213.409C163.178 186.165 187.827 155.516 215.395 123.408L216.368 122.273C239.558 95.1909 268.585 61.6227 276.207 11.5137" fill="url(#shape_line_flow_paint_9)"></path></g><g opacity="0.7"><path opacity="0.7" d="M286.261 9.40552C278.153 61.4605 244.423 94.38 219.611 118.38C202.584 134.921 186.53 150.813 170.962 166.381C154.097 183.084 138.205 198.977 122.961 213.571L122.475 214.058C110.312 225.734 96.5281 239.031 94.0956 263.843C91.9875 285.735 101.555 313.465 119.718 338.114C130.421 352.385 142.096 364.223 151.989 373.953C166.097 387.574 179.719 399.25 191.719 409.629C197.233 414.494 202.584 419.034 207.611 423.413C225.449 439.305 241.017 454.711 254.963 468.981C281.883 496.225 304.424 521.847 327.938 557.848C344.478 583.145 361.992 614.605 380.155 651.417C398.155 688.066 416.966 731.364 436.264 779.852C465.291 852.826 505.833 964.071 533.239 1079.69L535.833 1078.72C508.427 962.774 467.886 851.366 438.696 778.23C419.399 729.58 400.425 686.282 382.425 649.471C364.263 612.497 346.587 580.875 330.046 555.577C306.532 519.415 283.667 493.63 256.747 466.224C242.639 451.792 227.071 436.386 209.233 420.494C204.206 415.953 198.854 411.413 193.341 406.71C181.34 396.331 167.719 384.655 153.772 371.196C143.88 361.628 132.367 349.79 121.826 335.682C103.826 312.005 94.42 285.248 96.5281 264.329C98.7984 240.977 112.096 228.004 123.934 216.815L124.421 216.328C139.664 201.571 155.556 185.841 172.421 169.138C187.989 153.732 204.206 137.678 221.071 121.137C246.044 96.8125 280.423 63.5687 288.694 10.2163" fill="url(#shape_line_flow_paint_10)"></path></g><g opacity="0.7"><path opacity="0.7" d="M298.262 7.94629C290.315 58.5418 256.423 90.0018 225.287 115.624L212.476 126.165C177.935 154.543 145.178 181.463 114.366 205.139C99.7715 216.49 83.0685 229.139 79.0144 255.41C74.7981 282.654 88.9065 313.141 103.501 332.601C112.42 344.601 123.285 355.952 137.232 368.439C155.07 384.331 172.908 396.818 188.638 407.845C192.043 410.278 195.449 412.71 198.692 414.98C220.422 430.386 239.396 445.467 255.126 458.116C284.478 481.63 315.775 508.55 346.911 546.821C367.993 572.767 389.56 604.227 410.966 640.552C432.859 678.012 454.751 721.31 475.994 769.473C507.779 840.988 550.915 952.071 576.861 1075.32L579.618 1074.34C553.671 950.774 510.211 839.204 478.427 767.527C457.021 719.364 435.129 675.904 413.237 638.282C391.831 601.795 370.263 570.172 349.019 544.064C317.721 505.631 286.261 478.549 256.747 454.873C241.017 442.224 221.882 427.143 200.152 411.737C196.908 409.467 193.503 407.034 190.097 404.602C174.53 393.575 156.691 381.088 139.015 365.358C125.069 353.033 114.529 341.844 105.609 330.006C91.5011 311.195 77.8793 281.843 81.9334 256.059C85.6632 231.41 101.718 219.085 115.826 208.22C146.637 184.544 179.395 157.625 213.936 129.083L226.747 118.543C258.531 92.5964 292.91 60.4877 301.018 8.59497" fill="url(#shape_line_flow_paint_11)"></path></g><g opacity="0.7"><path opacity="0.7" d="M310.424 6.32446C302.64 56.5956 267.612 87.0826 230.963 112.705C193.341 138.975 149.07 169.462 105.771 196.706C89.7171 206.76 69.7708 219.085 64.095 246.815C60.2031 265.464 64.2572 296.276 87.2846 326.925C96.8524 339.574 108.042 350.925 122.474 362.763C142.907 379.466 164.151 391.629 182.962 402.331L189.935 406.386C210.044 418.061 230.314 430.548 255.45 446.927C288.856 468.819 328.1 496.549 366.046 535.469C391.831 561.902 417.29 593.362 441.777 629.363C467.562 667.147 492.373 710.769 515.725 758.77C565.347 860.61 601.672 968.45 620.645 1070.78L623.727 1069.8C604.753 967.152 568.266 858.826 518.481 756.662C494.968 708.499 469.994 664.877 444.21 626.768C419.561 590.605 393.939 558.983 367.992 532.388C329.884 493.306 290.477 465.414 256.909 443.359C231.611 426.981 211.503 414.332 191.232 402.656L184.259 398.602C165.61 387.899 144.529 375.736 124.258 359.196C109.988 347.52 98.9605 336.33 89.5549 323.844C75.7709 305.519 61.5004 274.383 67.014 247.464C72.3654 221.517 91.6631 209.517 107.069 199.787C150.367 172.544 194.638 141.894 232.26 115.624C269.558 89.6772 305.072 58.3793 313.181 6.64868" fill="url(#shape_line_flow_paint_12)"></path></g><g opacity="0.7"><path opacity="0.7" d="M322.424 4.70288C314.154 57.0822 274.423 87.2449 236.639 109.786C183.773 141.408 138.205 167.03 97.3389 188.274C80.1494 197.193 56.7977 209.193 49.3381 238.221C41.7163 267.897 56.4733 301.465 71.3925 321.249C81.2846 334.384 93.447 346.222 108.204 357.088C130.583 373.791 154.583 385.142 175.827 395.034L181.503 397.629C205.665 408.98 229.99 421.467 256.098 435.575C309.451 464.927 349.506 492.171 385.506 523.955C415.831 550.713 445.345 582.335 473.075 618.011C502.589 656.12 530.482 699.742 555.942 747.905C609.943 849.421 647.565 959.368 664.754 1065.91L667.998 1065.1C650.646 958.071 612.862 847.637 558.698 745.635C533.076 697.31 505.022 653.525 475.346 615.254C447.453 579.416 417.939 547.631 387.29 520.712C350.965 488.766 310.91 461.36 257.234 431.846C231.125 417.575 206.638 405.088 182.476 393.737L176.8 391.142C154.745 380.764 131.718 370.061 109.663 353.52C95.2308 342.817 83.3927 331.303 73.6628 318.33C59.3923 299.519 45.284 267.572 52.4192 239.518C59.3923 212.436 81.9332 200.598 98.4741 192.166C139.34 170.922 185.07 145.138 237.936 113.678C276.531 90.6503 317.073 59.839 325.667 5.67578" fill="url(#shape_line_flow_paint_13)"></path></g><g opacity="0.7"><path opacity="0.7" d="M334.586 3.08118C325.992 57.4065 283.18 86.1097 242.315 106.867C186.854 135.246 136.745 159.084 88.7443 179.841C70.744 187.625 43.5003 199.301 34.419 229.626C28.5811 248.923 30.5271 283.14 55.1762 315.573C65.5547 329.195 78.0414 340.871 93.4471 351.412C117.448 367.953 143.07 377.682 167.719 387.25L172.421 389.034C200.314 399.737 228.531 411.737 255.936 424.548C314.802 451.954 361.83 480.009 404.317 512.766C439.345 539.847 472.751 571.632 503.725 606.984C536.968 645.255 567.942 689.201 595.51 737.364C653.889 838.88 692.809 950.936 708.215 1061.37L711.945 1060.56C696.377 949.476 657.133 836.772 598.591 734.77C570.861 686.283 539.725 642.336 506.319 603.74C475.346 568.064 441.778 536.28 406.426 509.036C363.776 476.117 316.586 447.9 257.558 420.332C229.99 407.521 201.773 395.521 173.881 384.818L169.016 383.034C144.367 373.628 118.907 363.898 95.3931 347.52C80.3117 337.303 68.1494 325.79 57.933 312.492C34.419 281.519 32.4731 249.41 37.9867 231.247C45.9327 204.977 67.1764 193.949 90.2038 184.057C138.205 163.3 188.476 139.462 243.936 111.083C261.45 102.164 283.829 89.6773 302.316 71.677C322.424 52.055 334.262 30.0005 338.316 4.0542" fill="url(#shape_line_flow_paint_14)"></path></g><g opacity="0.7"><path opacity="0.7" d="M346.749 1.45959C337.83 57.893 289.342 85.9475 248.152 104.11C190.908 129.246 134.475 151.949 80.4737 171.571C55.3381 180.652 29.8782 192.003 19.824 221.193C9.44544 251.356 22.0943 287.519 39.2838 310.06C49.9867 324.168 63.1221 335.844 79.0142 345.898C104.15 361.79 131.88 370.547 158.799 378.98L163.989 380.601C195.287 390.331 226.422 401.359 256.585 413.521C320.154 438.981 374.803 467.846 423.777 501.576C463.508 528.982 500.968 560.767 534.86 595.957C571.996 634.39 605.888 678.499 635.727 726.824C698.485 828.501 738.864 942.665 752.486 1056.83L756.215 1056.18C742.431 941.206 701.89 826.393 638.808 724.067C608.807 675.417 574.753 631.146 537.455 592.551C503.238 557.199 465.778 525.253 425.723 497.685C376.587 463.792 321.775 434.927 257.882 409.305C227.557 397.142 196.422 386.115 165.124 376.385L159.935 374.763C133.34 366.493 105.771 357.736 80.9602 342.168C65.3924 332.276 52.7435 320.925 42.2028 307.141C25.8241 285.735 13.6617 251.68 23.3916 223.463C32.7972 196.22 57.2841 185.355 81.6089 176.436C135.61 156.814 192.205 134.111 249.612 108.975C291.775 90.4882 341.397 61.6228 350.641 2.75684" fill="url(#shape_line_flow_paint_15)"></path></g><g opacity="0.7"><path opacity="0.7" d="M358.749 0C349.343 58.8659 294.369 86.1096 253.666 101.353C193.665 123.894 132.529 144.813 71.7168 163.138C59.5545 166.868 45.6083 171.408 33.2837 179.03C19.4997 187.625 10.0941 198.652 4.74268 212.598C-7.25753 243.896 5.22918 281.194 23.0673 304.384C55.8247 346.871 103.826 359.033 150.367 370.709L155.232 372.007C325.343 414.98 459.616 484.711 565.834 584.929C694.755 706.715 778.594 876.989 796.108 1052.29L800 1051.64C782.324 875.043 697.836 703.472 568.104 581.037C461.562 480.171 326.64 410.278 156.043 366.979L151.178 365.682C105.285 354.168 57.7706 342.168 25.9863 300.654C9.12114 278.924 -2.87908 243.896 8.31031 214.707C19.1754 186.328 46.0948 175.949 72.6898 168.003C133.502 149.516 194.8 128.759 254.801 106.056C341.559 73.2986 357.938 30.3248 362.641 0.9729" fill="url(#shape_line_flow_paint_16)"></path></g><defs><linearGradient id="shape_line_flow_paint_0" x1="169.932" y1="1125.43" x2="169.932" y2="348.168" gradientUnits="userSpaceOnUse"><stop offset="0.0217032" stop-color="#002832" stop-opacity="1"></stop><stop offset="0.505208" stop-color="#002832"></stop><stop offset="0.983118" stop-color="#002832" stop-opacity="1"></stop></linearGradient><linearGradient id="shape_line_flow_paint_1" x1="184.308" y1="1120.88" x2="184.308" y2="23.6763" gradientUnits="userSpaceOnUse"><stop offset="0.0217032" stop-color="#002832" stop-opacity="1"></stop><stop offset="0.505208" stop-color="#002832"></stop><stop offset="0.983118" stop-color="#002832" stop-opacity="1"></stop></linearGradient><linearGradient id="shape_line_flow_paint_2" x1="198.885" y1="1116.34" x2="198.885" y2="22.0544" gradientUnits="userSpaceOnUse"><stop offset="0.0217032" stop-color="#002832" stop-opacity="1"></stop><stop offset="0.505208" stop-color="#002832"></stop><stop offset="0.983118" stop-color="#002832" stop-opacity="1"></stop></linearGradient><linearGradient id="shape_line_flow_paint_3" x1="213.277" y1="1111.8" x2="213.277" y2="20.5952" gradientUnits="userSpaceOnUse"><stop offset="0.0217032" stop-color="#002832" stop-opacity="1"></stop><stop offset="0.505208" stop-color="#002832"></stop><stop offset="0.983118" stop-color="#002832" stop-opacity="1"></stop></linearGradient><linearGradient id="shape_line_flow_paint_4" x1="222.384" y1="1107.43" x2="222.384" y2="18.9733" gradientUnits="userSpaceOnUse"><stop offset="0.0217032" stop-color="#002832" stop-opacity="1"></stop><stop offset="0.505208" stop-color="#002832"></stop><stop offset="0.983118" stop-color="#002832" stop-opacity="1"></stop></linearGradient><linearGradient id="shape_line_flow_paint_5" x1="240.043" y1="1103.05" x2="240.043" y2="17.3518" gradientUnits="userSpaceOnUse"><stop offset="0.0217032" stop-color="#002832" stop-opacity="1"></stop><stop offset="0.505208" stop-color="#002832"></stop><stop offset="0.983118" stop-color="#002832" stop-opacity="1"></stop></linearGradient><linearGradient id="shape_line_flow_paint_6" x1="255.581" y1="1098.34" x2="255.581" y2="15.7302" gradientUnits="userSpaceOnUse"><stop offset="0.0217032" stop-color="#002832" stop-opacity="1"></stop><stop offset="0.505208" stop-color="#002832"></stop><stop offset="0.983118" stop-color="#002832" stop-opacity="1"></stop></linearGradient><linearGradient id="shape_line_flow_paint_7" x1="270.793" y1="1093.8" x2="270.793" y2="14.2705" gradientUnits="userSpaceOnUse"><stop offset="0.0217032" stop-color="#002832" stop-opacity="1"></stop><stop offset="0.505208" stop-color="#002832"></stop><stop offset="0.983118" stop-color="#002832" stop-opacity="1"></stop></linearGradient><linearGradient id="shape_line_flow_paint_8" x1="285.514" y1="1089.1" x2="285.514" y2="12.649" gradientUnits="userSpaceOnUse"><stop offset="0.0217032" stop-color="#002832" stop-opacity="1"></stop><stop offset="0.505208" stop-color="#002832"></stop><stop offset="0.983118" stop-color="#002832" stop-opacity="1"></stop></linearGradient><linearGradient id="shape_line_flow_paint_9" x1="300.104" y1="1084.4" x2="300.104" y2="11.0272" gradientUnits="userSpaceOnUse"><stop offset="0.0217032" stop-color="#002832" stop-opacity="1"></stop><stop offset="0.505208" stop-color="#002832"></stop><stop offset="0.983118" stop-color="#002832" stop-opacity="1"></stop></linearGradient><linearGradient id="shape_line_flow_paint_10" x1="314.821" y1="1079.69" x2="314.821" y2="9.40552" gradientUnits="userSpaceOnUse"><stop offset="0.0217032" stop-color="#002832" stop-opacity="1"></stop><stop offset="0.505208" stop-color="#002832"></stop><stop offset="0.983118" stop-color="#002832" stop-opacity="1"></stop></linearGradient><linearGradient id="shape_line_flow_paint_11" x1="328.937" y1="1075.32" x2="328.937" y2="7.94629" gradientUnits="userSpaceOnUse"><stop offset="0.0217032" stop-color="#002832" stop-opacity="1"></stop><stop offset="0.505208" stop-color="#002832"></stop><stop offset="0.983118" stop-color="#002832" stop-opacity="1"></stop></linearGradient><linearGradient id="shape_line_flow_paint_12" x1="343.261" y1="1070.78" x2="343.261" y2="6.32446" gradientUnits="userSpaceOnUse"><stop offset="0.0217032" stop-color="#002832" stop-opacity="1"></stop><stop offset="0.505208" stop-color="#002832"></stop><stop offset="0.983118" stop-color="#002832" stop-opacity="1"></stop></linearGradient><linearGradient id="shape_line_flow_paint_13" x1="357.631" y1="1065.91" x2="357.631" y2="4.70288" gradientUnits="userSpaceOnUse"><stop offset="0.0217032" stop-color="#002832" stop-opacity="1"></stop><stop offset="0.505208" stop-color="#002832"></stop><stop offset="0.983118" stop-color="#002832" stop-opacity="1"></stop></linearGradient><linearGradient id="shape_line_flow_paint_14" x1="371.806" y1="1061.37" x2="371.806" y2="3.08118" gradientUnits="userSpaceOnUse"><stop offset="0.0217032" stop-color="#002832" stop-opacity="1"></stop><stop offset="0.505208" stop-color="#002832"></stop><stop offset="0.983118" stop-color="#002832" stop-opacity="1"></stop></linearGradient><linearGradient id="shape_line_flow_paint_15" x1="386.142" y1="1056.83" x2="386.142" y2="1.45959" gradientUnits="userSpaceOnUse"><stop offset="0.0217032" stop-color="#002832" stop-opacity="1"></stop><stop offset="0.505208" stop-color="#002832"></stop><stop offset="0.983118" stop-color="#002832" stop-opacity="1"></stop></linearGradient><linearGradient id="shape_line_flow_paint_16" x1="400" y1="1052.29" x2="400" y2="0" gradientUnits="userSpaceOnUse"><stop offset="0.0217032" stop-color="#002832" stop-opacity="1"></stop><stop offset="0.505208" stop-color="#002832"></stop><stop offset="0.983118" stop-color="#002832" stop-opacity="1"></stop></linearGradient></defs></svg>