<svg fill="none" height="772" viewBox="0 0 1290 772" width="1290" xmlns="http://www.w3.org/2000/svg">
<g stroke="#002832" stroke-miterlimit="10" stroke-width=".97">
<path d="M-2022 316.332C-1807.27 174.214-1177.58 387.613-853.69 362.284-581.467 340.98-615.584 532.128-449.646 474.014-328.27 431.524 112.347 503.781 342.375 479.725 525.297 460.581 628.002 408.03 809.238 425.103 990.473 442.176 855.013 151.815 984.289 189.423 1113.57 227.031 1062.76 407.675 1276.25 428.506 1479.32 448.331 1457.07 279.848 1549.86 310.207 1639.34 339.501 2053.74-78.4506 2064.51 86.5402 2075.93 260.97 1891.15 299.555 1893.93 431.76 1896.89 570.92 2330.49 153.945 2517.91 269.166"/>
<path d="M-2010.76 366.871C-1780.2 226.646-1129.73 346.779-809.247 326.185-538.267 308.994-596.883 512.688-418.311 448.686-279.862 398.739 106.458 517.747 344.268 495.91 542.074 478.512 601.963 405.396 776.748 413.474 948.397 423.505 844.922 168.325 971.743 209.691 1098.56 251.058 1073.03 424.511 1278.14 436.435 1471.04 447.65 1452.57 293.163 1549.86 325.593 1640.26 355.597 2028.26-73.746 2046.7 79.705 2066.08 241.086 1878.63 308.52 1879.13 438.536 1879.4 576.808 2322.09 169.539 2509.36 284.464"/>
<path d="M-1999.48 417.439C-1753.12 279.108-1081.85 305.976-764.774 290.145-495.066 277.067-578.153 493.306-386.976 423.416-231.454 366.013 100.481 531.003 346.162 512.155 558.851 495.851 575.954 402.822 744.259 401.905 906.291 404.893 834.832 184.866 959.196 230.049 1083.59 275.232 1083.21 441.555 1280.01 444.454 1462.69 447.147 1448.04 306.597 1549.86 341.069 1641.14 371.753 2002.73-69.0412 2028.89 72.9586 2056.2 221.202 1866.14 317.575 1864.34 445.401 1861.91 582.785 2313.68 185.251 2500.84 299.821"/>
<path d="M-1988.24 467.978C-1726.05 331.541-1034.04 265.142-720.33 254.046-451.865 245.081-559.422 473.866-355.64 398.088-183.044 333.257 94.5641 544.763 348.057 528.37 575.63 513.634 549.916 400.218 711.741 390.335 864.186 386.311 824.684 201.436 946.622 250.407 1068.56 299.377 1093.33 458.716 1281.87 452.473 1454.26 446.762 1443.52 320.031 1549.86 356.514 1642.06 387.909 1977.1-64.4252 2011.07 66.1531 2046.2 201.229 1853.95 326.599 1849.57 452.177 1844.81 588.673 2305.31 200.844 2492.35 315.089"/>
<path d="M-1976.96 518.517C-1698.94 384.003-986.161 224.338-675.857 217.977-408.634 213.124-540.692 454.456-324.275 372.789-134.606 300.502 88.7054 558.67 349.98 544.585 592.466 531.507 523.907 397.614 679.281 378.736 822.139 367.67 814.623 217.947 934.106 270.735 1053.59 323.493 1103.42 475.967 1283.79 460.433 1445.86 446.466 1439.05 333.376 1549.89 371.931 1643.01 404.035 1951.39-59.8683 1993.26 59.3476 2035.13 178.564 1841.5 335.624 1834.78 458.983 1827.38 594.591 2296.91 216.468 2483.82 330.387"/>
<path d="M-1965.72 569.056C-1671.87 436.436-938.316 183.505-631.414 181.878-365.464 181.138-521.992 434.986-292.97 347.46-86.2282 267.717 82.7869 572.636 351.844 560.771 609.243 549.438 497.838 394.981 646.762 367.137 780.003 349.058 804.503 234.488 921.53 291.033 1038.59 347.608 1113.42 493.395 1285.63 468.392 1437.33 446.378 1434.49 346.75 1549.86 387.347 1643.9 420.132 1925.44-55.3707 1975.42 52.542 2025.39 160.455 1829.01 344.62 1819.95 465.759 1809.89 600.509 2288.47 232.061 2475.24 345.655"/>
<path d="M-1954.45 619.594C-1644.79 488.868-890.469 142.671-586.97 145.808-322.263 149.181-503.291 415.575-261.634 322.161-37.7896 234.991 76.899 586.691 353.738 576.985 626.05 567.458 471.83 392.377 614.244 355.538 737.898 330.417 794.355 250.998 908.955 311.361 1023.55 371.723 1123.42 511.06 1287.49 476.381 1428.84 446.496 1429.97 360.154 1549.83 402.792 1644.76 436.288 1899.28-50.7845 1957.58 45.7659 2015.87 142.316 1816.46 353.644 1805.13 472.594 1792.38 606.457 2280.04 247.714 2466.69 360.982"/>
<path d="M-1943.2 670.133C-1617.69 541.33-842.594 101.838-542.527 109.738-279.063 117.224-484.591 396.164-230.3 296.862 10.6177 202.235 71.0099 600.805 355.631 593.201 640.252 585.596 445.79 389.773 581.753 343.939 695.821 311.775 784.264 267.539 896.408 331.689 1008.58 395.839 1133.51 528.991 1289.39 484.37 1420.41 446.851 1425.47 373.528 1549.86 418.208 1645.7 452.414 1872.98-46.1094 1939.76 38.9307 2004.39 121.219 1803.92 362.639 1790.34 479.37 1774.86 612.345 2271.64 263.308 2458.17 376.28"/>
<path d="M-1931.93 720.701C-1590.62 593.763-794.748 61.034-498.054 73.6391-235.833 85.2381-465.861 376.724-198.964 271.533 59.0263 169.479 65.1217 615.481 357.525 609.415 659.692 604.237 419.751 387.169 549.264 332.369 653.715 293.193 774.174 284.109 883.892 352.046 993.609 419.984 1143.75 547.248 1291.28 492.389 1412.09 447.472 1420.97 386.962 1549.89 433.684 1646.65 468.599 1846.47-41.168 1921.98 32.1842 1993.47 101.601 1791.4 371.694 1775.57 486.205 1757.34 618.292 2263.26 278.99 2449.68 391.607"/>
<path d="M-1920.69 771.24C-1563.54 646.225-746.902 20.2007-453.612 37.5697-192.662 53.2522-447.132 357.313-167.63 246.235 107.434 136.724 59.2033 629.448 359.418 625.631 676.499 622.198 393.712 384.565 516.775 320.77 611.638 274.552 764.054 300.62 871.345 372.374 978.607 444.099 1154.19 565.742 1293.17 500.349 1403.96 448.242 1416.47 400.336 1549.89 449.1 1647.57 484.696 1819.78-35.9305 1904.17 25.3789 1982.4 82.2202 1778.68 380.659 1760.77 493.011 1739.59 624.151 2254.86 294.613 2441.12 406.905"/>
<path d="M-1909.41 821.779C-1536.47 698.657-699.056-20.6328-409.168 1.50007-149.461 21.2954-428.431 337.903-136.294 220.935 155.843 103.968 53.3151 643.414 361.312 641.846 693.276 640.159 367.703 381.961 484.256 309.171 569.533 255.94 753.934 317.16 858.77 392.673 963.605 468.215 1164.9 584.501 1295.04 508.308 1396.03 449.189 1411.95 413.681 1549.89 464.516 1648.45 500.822 1793.15-30.3382 1886.35 18.5732 1971.42 63.1941 1766.16 389.655 1745.98 499.787 1722.13 630.039 2246.46 310.207 2432.6 422.173"/>
</g>
</svg>